<svg xmlns="http://www.w3.org/2000/svg" xmlns:xlink="http://www.w3.org/1999/xlink" width="500" zoomAndPan="magnify"
     viewBox="0 0 375 374.999991" height="500" preserveAspectRatio="xMidYMid meet" version="1.0">
    <defs>
        <clipPath id="id1">
            <path d="M 51.328125 70.902344 L 323.578125 70.902344 L 323.578125 304.152344 L 51.328125 304.152344 Z M 51.328125 70.902344 "
                  clip-rule="nonzero"/>
        </clipPath>
    </defs>
    <g clip-path="url(#id1)">
        <path fill="#e7e4e3"
              d="M 66.039062 70.902344 C 58.015625 70.902344 51.46875 77.449219 51.46875 85.480469 L 51.46875 289.574219 C 51.46875 297.601562 58.015625 304.152344 66.039062 304.152344 L 308.863281 304.152344 C 316.886719 304.152344 323.433594 297.601562 323.433594 289.574219 L 323.433594 85.480469 C 323.433594 77.449219 316.886719 70.902344 308.863281 70.902344 Z M 66.039062 80.621094 L 308.863281 80.621094 C 311.539062 80.621094 313.71875 82.804688 313.71875 85.480469 L 313.71875 289.574219 C 313.71875 292.25 311.539062 294.433594 308.863281 294.433594 L 66.039062 294.433594 C 63.363281 294.433594 61.183594 292.25 61.183594 289.574219 L 61.183594 129.214844 L 260.296875 129.214844 C 262.992188 129.214844 265.15625 127.03125 265.15625 124.355469 C 265.15625 121.679688 262.992188 119.496094 260.296875 119.496094 L 61.183594 119.496094 L 61.183594 85.480469 C 61.183594 82.804688 63.363281 80.621094 66.039062 80.621094 Z M 80.609375 90.339844 C 77.914062 90.339844 75.753906 92.523438 75.753906 95.199219 L 75.753906 104.917969 C 75.753906 107.59375 77.914062 109.777344 80.609375 109.777344 C 83.304688 109.777344 85.464844 107.59375 85.464844 104.917969 L 85.464844 95.199219 C 85.464844 92.523438 83.304688 90.339844 80.609375 90.339844 Z M 104.890625 90.339844 C 102.199219 90.339844 100.035156 92.523438 100.035156 95.199219 L 100.035156 104.917969 C 100.035156 107.59375 102.199219 109.777344 104.890625 109.777344 C 107.585938 109.777344 109.746094 107.59375 109.746094 104.917969 L 109.746094 95.199219 C 109.746094 92.523438 107.585938 90.339844 104.890625 90.339844 Z M 129.171875 90.339844 C 126.480469 90.339844 124.316406 92.523438 124.316406 95.199219 L 124.316406 104.917969 C 124.316406 107.59375 126.480469 109.777344 129.171875 109.777344 C 131.867188 109.777344 134.03125 107.59375 134.03125 104.917969 L 134.03125 95.199219 C 134.03125 92.523438 131.867188 90.339844 129.171875 90.339844 Z M 153.457031 90.339844 C 150.761719 90.339844 148.601562 92.523438 148.601562 95.199219 L 148.601562 104.917969 C 148.601562 107.59375 150.761719 109.777344 153.457031 109.777344 C 156.148438 109.777344 158.3125 107.59375 158.3125 104.917969 L 158.3125 95.199219 C 158.3125 92.523438 156.148438 90.339844 153.457031 90.339844 Z M 177.738281 90.339844 C 175.042969 90.339844 172.882812 92.523438 172.882812 95.199219 L 172.882812 104.917969 C 172.882812 107.59375 175.042969 109.777344 177.738281 109.777344 C 180.433594 109.777344 182.59375 107.59375 182.59375 104.917969 L 182.59375 95.199219 C 182.59375 92.523438 180.433594 90.339844 177.738281 90.339844 Z M 202.019531 90.339844 C 199.328125 90.339844 197.164062 92.523438 197.164062 95.199219 L 197.164062 104.917969 C 197.164062 107.59375 199.328125 109.777344 202.019531 109.777344 C 204.714844 109.777344 206.878906 107.59375 206.878906 104.917969 L 206.878906 95.199219 C 206.878906 92.523438 204.714844 90.339844 202.019531 90.339844 Z M 226.304688 90.339844 C 223.609375 90.339844 221.445312 92.523438 221.445312 95.199219 L 221.445312 104.917969 C 221.445312 107.59375 223.609375 109.777344 226.304688 109.777344 C 228.996094 109.777344 231.160156 107.59375 231.160156 104.917969 L 231.160156 95.199219 C 231.160156 92.523438 228.996094 90.339844 226.304688 90.339844 Z M 250.585938 90.339844 C 247.890625 90.339844 245.730469 92.523438 245.730469 95.199219 L 245.730469 104.917969 C 245.730469 107.59375 247.890625 109.777344 250.585938 109.777344 C 253.28125 109.777344 255.441406 107.59375 255.441406 104.917969 L 255.441406 95.199219 C 255.441406 92.523438 253.28125 90.339844 250.585938 90.339844 Z M 274.867188 90.339844 C 272.175781 90.339844 270.011719 92.523438 270.011719 95.199219 L 270.011719 104.917969 C 270.011719 107.59375 272.175781 109.777344 274.867188 109.777344 C 277.5625 109.777344 279.726562 107.59375 279.726562 104.917969 L 279.726562 95.199219 C 279.726562 92.523438 277.5625 90.339844 274.867188 90.339844 Z M 299.152344 90.339844 C 296.457031 90.339844 294.292969 92.523438 294.292969 95.199219 L 294.292969 104.917969 C 294.292969 107.59375 296.457031 109.777344 299.152344 109.777344 C 301.84375 109.777344 304.007812 107.59375 304.007812 104.917969 L 304.007812 95.199219 C 304.007812 92.523438 301.84375 90.339844 299.152344 90.339844 Z M 279.726562 119.496094 C 277.03125 119.496094 274.867188 121.679688 274.867188 124.355469 C 274.867188 127.03125 277.03125 129.214844 279.726562 129.214844 L 299.152344 129.214844 C 301.84375 129.214844 304.007812 127.03125 304.007812 124.355469 C 304.007812 121.679688 301.84375 119.496094 299.152344 119.496094 Z M 201.261719 148.707031 C 199.402344 148.992188 197.789062 150.378906 197.316406 152.335938 L 168.175781 268.957031 C 167.511719 271.558594 169.105469 274.199219 171.707031 274.84375 C 172.105469 274.957031 172.503906 274.996094 172.882812 274.996094 C 175.0625 274.996094 177.035156 273.535156 177.585938 271.332031 L 206.726562 154.707031 C 207.390625 152.085938 205.796875 149.449219 203.195312 148.804688 C 202.550781 148.632812 201.886719 148.59375 201.261719 148.707031 Z M 143.742188 177.808594 C 142.511719 177.808594 141.257812 178.28125 140.308594 179.230469 L 111.171875 208.386719 C 109.273438 210.285156 109.273438 213.359375 111.171875 215.257812 L 140.308594 244.414062 C 141.257812 245.363281 142.492188 245.839844 143.742188 245.839844 C 144.996094 245.839844 146.226562 245.363281 147.175781 244.414062 C 149.074219 242.515625 149.074219 239.441406 147.175781 237.542969 L 121.472656 211.824219 L 147.175781 186.101562 C 149.074219 184.203125 149.074219 181.128906 147.175781 179.230469 C 146.226562 178.28125 144.976562 177.808594 143.742188 177.808594 Z M 231.160156 177.808594 C 229.925781 177.808594 228.675781 178.28125 227.726562 179.230469 C 225.828125 181.128906 225.828125 184.203125 227.726562 186.101562 L 253.429688 211.824219 L 227.726562 237.542969 C 225.828125 239.441406 225.828125 242.515625 227.726562 244.414062 C 228.675781 245.363281 229.90625 245.839844 231.160156 245.839844 C 232.410156 245.839844 233.644531 245.363281 234.59375 244.414062 L 263.734375 215.257812 C 265.628906 213.359375 265.628906 210.285156 263.734375 208.386719 L 234.59375 179.230469 C 233.644531 178.28125 232.394531 177.808594 231.160156 177.808594 Z M 231.160156 177.808594 "
              fill-opacity="1" fill-rule="nonzero"/>
    </g>
</svg>
