<svg xmlns="http://www.w3.org/2000/svg" xmlns:xlink="http://www.w3.org/1999/xlink" width="500" zoomAndPan="magnify" viewBox="0 0 375 374.999991" height="500" preserveAspectRatio="xMidYMid meet" version="1.0"><defs><clipPath id="id1"><path d="M 160.578125 0 L 224.269531 0 L 224.269531 63.691406 L 160.578125 63.691406 Z M 160.578125 0 " clip-rule="nonzero"/></clipPath><clipPath id="id2"><path d="M 0 283.554688 L 65.175781 283.554688 L 65.175781 348.730469 L 0 348.730469 Z M 0 283.554688 " clip-rule="nonzero"/></clipPath><clipPath id="id3"><path d="M 321.042969 284.445312 L 375 284.445312 L 375 348.632812 L 321.042969 348.632812 Z M 321.042969 284.445312 " clip-rule="nonzero"/></clipPath><clipPath id="id4"><path d="M 91 291 L 305 291 L 305 354.023438 L 91 354.023438 Z M 91 291 " clip-rule="nonzero"/></clipPath><clipPath id="id5"><path d="M 65.28125 74 L 194 74 L 194 283 L 65.28125 283 Z M 65.28125 74 " clip-rule="nonzero"/></clipPath><clipPath id="id6"><path d="M 176.855469 189.617188 L 220.257812 189.617188 L 220.257812 226.820312 L 176.855469 226.820312 Z M 176.855469 189.617188 " clip-rule="nonzero"/></clipPath></defs><g clip-path="url(#id1)"><path fill="rgb(97.648621%, 97.648621%, 98.039246%)" d="M 221.085938 61.570312 L 207.285156 61.570312 L 207.285156 39.277344 L 221.085938 39.277344 Z M 193.484375 48.832031 L 198.792969 48.832031 L 198.792969 61.570312 L 193.484375 61.570312 Z M 186.054688 48.832031 L 191.359375 48.832031 L 191.359375 61.570312 L 186.054688 61.570312 Z M 198.792969 46.707031 L 186.054688 46.707031 L 186.054688 44.585938 L 198.792969 44.585938 Z M 179.683594 38.214844 L 179.683594 22.292969 C 179.683594 21.707031 179.207031 21.230469 178.621094 21.230469 L 177.972656 21.230469 L 192.421875 11.878906 L 206.875 21.230469 L 206.222656 21.230469 C 205.636719 21.230469 205.160156 21.707031 205.160156 22.292969 L 205.160156 61.570312 L 200.914062 61.570312 L 200.914062 43.523438 C 200.914062 42.9375 200.4375 42.460938 199.855469 42.460938 L 184.992188 42.460938 C 184.40625 42.460938 183.929688 42.9375 183.929688 43.523438 L 183.929688 61.570312 L 179.683594 61.570312 Z M 163.761719 39.277344 L 177.5625 39.277344 L 177.5625 61.570312 L 163.761719 61.570312 Z M 162.699219 29.722656 L 177.5625 29.722656 L 177.5625 37.15625 L 162.699219 37.15625 Z M 222.144531 29.722656 L 222.144531 37.15625 L 207.285156 37.15625 L 207.285156 29.722656 Z M 193.484375 2.421875 L 200.785156 4.246094 L 193.484375 6.070312 Z M 223.207031 27.601562 L 207.285156 27.601562 L 207.285156 23.355469 L 210.46875 23.355469 C 210.941406 23.355469 211.351562 23.042969 211.488281 22.589844 C 211.621094 22.144531 211.441406 21.65625 211.046875 21.402344 L 193.484375 10.039062 L 193.484375 8.261719 L 205.417969 5.273438 C 205.890625 5.160156 206.222656 4.734375 206.222656 4.246094 C 206.222656 3.757812 205.890625 3.332031 205.417969 3.21875 L 192.679688 0.03125 C 192.363281 -0.046875 192.027344 0.0234375 191.773438 0.222656 C 191.511719 0.425781 191.359375 0.734375 191.359375 1.0625 L 191.359375 7.40625 C 191.359375 7.421875 191.359375 7.4375 191.359375 7.453125 L 191.359375 10.039062 L 173.800781 21.402344 C 173.40625 21.65625 173.222656 22.144531 173.355469 22.589844 C 173.492188 23.042969 173.902344 23.355469 174.375 23.355469 L 177.5625 23.355469 L 177.5625 27.601562 L 161.636719 27.601562 C 161.054688 27.601562 160.578125 28.078125 160.578125 28.660156 L 160.578125 38.214844 C 160.578125 38.800781 161.054688 39.277344 161.636719 39.277344 L 161.636719 62.632812 C 161.636719 63.214844 162.113281 63.691406 162.699219 63.691406 L 222.144531 63.691406 C 222.730469 63.691406 223.207031 63.214844 223.207031 62.632812 L 223.207031 39.277344 C 223.792969 39.277344 224.269531 38.800781 224.269531 38.214844 L 224.269531 28.660156 C 224.269531 28.078125 223.792969 27.601562 223.207031 27.601562 " fill-opacity="1" fill-rule="nonzero"/></g><path fill="rgb(97.648621%, 97.648621%, 98.039246%)" d="M 192.421875 23.355469 C 196.519531 23.355469 199.855469 26.6875 199.855469 30.785156 C 199.855469 34.882812 196.519531 38.214844 192.421875 38.214844 C 188.324219 38.214844 184.992188 34.882812 184.992188 30.785156 C 184.992188 26.6875 188.324219 23.355469 192.421875 23.355469 Z M 192.421875 40.339844 C 197.6875 40.339844 201.976562 36.050781 201.976562 30.785156 C 201.976562 25.519531 197.6875 21.230469 192.421875 21.230469 C 187.15625 21.230469 182.867188 25.519531 182.867188 30.785156 C 182.867188 36.050781 187.15625 40.339844 192.421875 40.339844 " fill-opacity="1" fill-rule="nonzero"/><path fill="rgb(97.648621%, 97.648621%, 98.039246%)" d="M 189.238281 33.96875 C 189.441406 33.96875 189.644531 33.910156 189.828125 33.792969 L 193.011719 31.667969 C 193.304688 31.472656 193.484375 31.140625 193.484375 30.785156 L 193.484375 25.476562 C 193.484375 24.890625 193.007812 24.414062 192.421875 24.414062 C 191.839844 24.414062 191.359375 24.890625 191.359375 25.476562 L 191.359375 30.21875 L 188.648438 32.023438 C 188.160156 32.347656 188.03125 33.007812 188.355469 33.496094 C 188.558594 33.804688 188.894531 33.96875 189.238281 33.96875 " fill-opacity="1" fill-rule="nonzero"/><path fill="rgb(97.648621%, 97.648621%, 98.039246%)" d="M 173.316406 48.832031 L 168.007812 48.832031 L 168.007812 43.523438 L 173.316406 43.523438 Z M 174.375 41.402344 L 166.945312 41.402344 C 166.359375 41.402344 165.882812 41.878906 165.882812 42.460938 L 165.882812 49.894531 C 165.882812 50.476562 166.359375 50.953125 166.945312 50.953125 L 174.375 50.953125 C 174.960938 50.953125 175.4375 50.476562 175.4375 49.894531 L 175.4375 42.460938 C 175.4375 41.878906 174.960938 41.402344 174.375 41.402344 " fill-opacity="1" fill-rule="nonzero"/><path fill="rgb(97.648621%, 97.648621%, 98.039246%)" d="M 211.53125 43.523438 L 216.839844 43.523438 L 216.839844 48.832031 L 211.53125 48.832031 Z M 210.46875 50.953125 L 217.898438 50.953125 C 218.484375 50.953125 218.960938 50.476562 218.960938 49.894531 L 218.960938 42.460938 C 218.960938 41.878906 218.484375 41.402344 217.898438 41.402344 L 210.46875 41.402344 C 209.882812 41.402344 209.40625 41.878906 209.40625 42.460938 L 209.40625 49.894531 C 209.40625 50.476562 209.882812 50.953125 210.46875 50.953125 " fill-opacity="1" fill-rule="nonzero"/><g clip-path="url(#id2)"><path fill="rgb(97.648621%, 97.648621%, 98.039246%)" d="M 62.226562 346.152344 C 62.019531 346.410156 61.710938 346.558594 61.378906 346.558594 L 47.242188 346.558594 C 46.914062 346.558594 46.605469 346.410156 46.394531 346.152344 C 46.273438 345.996094 46.195312 345.8125 46.167969 345.625 C 46.171875 345.523438 46.175781 345.421875 46.167969 345.320312 C 46.171875 345.292969 46.175781 345.265625 46.183594 345.234375 L 47.269531 340.34375 C 47.503906 339.292969 48.242188 338.425781 49.242188 338.023438 L 52.394531 336.761719 C 52.664062 336.894531 52.941406 336.996094 53.226562 337.070312 L 53.226562 344.386719 L 55.398438 344.386719 L 55.398438 337.070312 C 55.683594 336.996094 55.960938 336.894531 56.226562 336.761719 L 59.382812 338.023438 C 60.382812 338.425781 61.121094 339.292969 61.351562 340.34375 L 62.441406 345.234375 C 62.511719 345.558594 62.433594 345.890625 62.226562 346.152344 Z M 45.621094 338.570312 C 45.414062 338.976562 45.25 339.414062 45.148438 339.871094 L 45.078125 340.191406 L 45.007812 339.871094 C 44.617188 338.117188 43.390625 336.671875 41.722656 336.007812 L 40.066406 335.34375 C 40.839844 334.398438 41.277344 333.199219 41.277344 331.921875 L 41.277344 322.660156 L 35.847656 322.660156 C 32.851562 322.660156 30.414062 325.097656 30.414062 328.089844 L 30.414062 331.921875 C 30.414062 333.199219 30.851562 334.398438 31.625 335.34375 L 29.96875 336.007812 C 28.300781 336.671875 27.074219 338.117188 26.683594 339.871094 L 25.597656 344.765625 C 25.460938 345.371094 25.503906 345.988281 25.703125 346.558594 L 22.8125 346.558594 L 22.8125 290.074219 L 48.878906 290.074219 L 48.878906 324.574219 C 46.894531 326.167969 45.621094 328.613281 45.621094 331.351562 Z M 32.773438 327.003906 C 33.222656 325.742188 34.429688 324.832031 35.847656 324.832031 L 39.105469 324.832031 L 39.105469 327.003906 Z M 39.105469 329.175781 L 39.105469 331.921875 C 39.105469 333.164062 38.414062 334.28125 37.304688 334.839844 C 36.390625 335.292969 35.300781 335.292969 34.390625 334.839844 C 33.277344 334.28125 32.585938 333.164062 32.585938 331.921875 L 32.585938 329.175781 Z M 43.761719 346.152344 C 43.554688 346.410156 43.246094 346.558594 42.914062 346.558594 L 28.777344 346.558594 C 28.445312 346.558594 28.136719 346.410156 27.929688 346.152344 C 27.722656 345.890625 27.644531 345.558594 27.71875 345.234375 L 28.804688 340.34375 C 29.039062 339.292969 29.777344 338.425781 30.777344 338.023438 L 33.632812 336.882812 C 33.996094 337.042969 34.375 337.164062 34.757812 337.242188 L 34.757812 344.386719 L 36.933594 344.386719 L 36.933594 337.242188 C 37.316406 337.164062 37.695312 337.042969 38.058594 336.882812 L 40.914062 338.023438 C 41.917969 338.425781 42.652344 339.292969 42.886719 340.34375 L 43.972656 345.234375 C 43.980469 345.265625 43.984375 345.292969 43.988281 345.320312 C 43.984375 345.421875 43.984375 345.523438 43.988281 345.625 C 43.960938 345.8125 43.886719 345.996094 43.761719 346.152344 Z M 22.8125 285.726562 L 48.878906 285.726562 L 48.878906 287.902344 L 22.8125 287.902344 Z M 56.484375 330.265625 L 56.484375 332.863281 C 56.484375 333.59375 56.121094 334.269531 55.515625 334.671875 C 54.785156 335.160156 53.839844 335.160156 53.105469 334.671875 C 52.5 334.269531 52.140625 333.59375 52.140625 332.863281 L 52.140625 330.265625 Z M 54.3125 324.832031 C 57.90625 324.832031 60.828125 327.757812 60.828125 331.351562 L 60.828125 336.3125 C 60.625 336.199219 60.410156 336.09375 60.1875 336.007812 L 58.015625 335.136719 C 58.429688 334.464844 58.65625 333.679688 58.65625 332.863281 L 58.65625 328.089844 L 49.96875 328.089844 L 49.96875 332.863281 C 49.96875 333.679688 50.195312 334.464844 50.609375 335.136719 L 48.433594 336.007812 C 48.214844 336.09375 48 336.199219 47.792969 336.3125 L 47.792969 331.351562 C 47.792969 327.757812 50.71875 324.832031 54.3125 324.832031 Z M 51.054688 298.277344 L 60.828125 302.722656 L 60.828125 325.613281 C 59.234375 323.804688 56.90625 322.660156 54.3125 322.660156 C 53.160156 322.660156 52.058594 322.886719 51.054688 323.296875 Z M 20.636719 346.558594 L 18.464844 346.558594 L 18.464844 331.351562 L 6.515625 331.351562 L 6.515625 346.558594 L 4.34375 346.558594 L 4.34375 296.589844 L 20.636719 296.589844 Z M 16.292969 346.558594 L 8.691406 346.558594 L 8.691406 333.523438 L 16.292969 333.523438 Z M 64.453125 346.558594 C 64.65625 345.988281 64.695312 345.371094 64.5625 344.765625 L 63.472656 339.871094 C 63.371094 339.414062 63.210938 338.976562 63 338.570312 L 63 301.320312 L 51.054688 295.890625 L 51.054688 283.554688 L 20.636719 283.554688 L 20.636719 294.417969 L 2.171875 294.417969 L 2.171875 346.558594 L 0 346.558594 L 0 348.730469 L 65.175781 348.730469 L 65.175781 346.558594 L 64.453125 346.558594 " fill-opacity="1" fill-rule="nonzero"/></g><path fill="rgb(97.648621%, 97.648621%, 98.039246%)" d="M 16.292969 315.054688 L 8.691406 315.054688 L 8.691406 311.796875 L 16.292969 311.796875 Z M 18.464844 309.625 L 6.515625 309.625 L 6.515625 317.230469 L 18.464844 317.230469 L 18.464844 309.625 " fill-opacity="1" fill-rule="nonzero"/><path fill="rgb(97.648621%, 97.648621%, 98.039246%)" d="M 28.242188 294.417969 L 31.5 294.417969 L 31.5 302.023438 L 28.242188 302.023438 Z M 26.070312 304.195312 L 33.671875 304.195312 L 33.671875 292.246094 L 26.070312 292.246094 L 26.070312 304.195312 " fill-opacity="1" fill-rule="nonzero"/><path fill="rgb(97.648621%, 97.648621%, 98.039246%)" d="M 16.292969 325.917969 L 8.691406 325.917969 L 8.691406 322.660156 L 16.292969 322.660156 Z M 18.464844 320.488281 L 6.515625 320.488281 L 6.515625 328.089844 L 18.464844 328.089844 L 18.464844 320.488281 " fill-opacity="1" fill-rule="nonzero"/><path fill="rgb(97.648621%, 97.648621%, 98.039246%)" d="M 40.191406 294.417969 L 43.449219 294.417969 L 43.449219 302.023438 L 40.191406 302.023438 Z M 38.019531 304.195312 L 45.621094 304.195312 L 45.621094 292.246094 L 38.019531 292.246094 L 38.019531 304.195312 " fill-opacity="1" fill-rule="nonzero"/><path fill="rgb(97.648621%, 97.648621%, 98.039246%)" d="M 28.242188 309.625 L 31.5 309.625 L 31.5 317.230469 L 28.242188 317.230469 Z M 26.070312 319.402344 L 33.671875 319.402344 L 33.671875 307.453125 L 26.070312 307.453125 L 26.070312 319.402344 " fill-opacity="1" fill-rule="nonzero"/><path fill="rgb(97.648621%, 97.648621%, 98.039246%)" d="M 40.191406 309.625 L 43.449219 309.625 L 43.449219 317.230469 L 40.191406 317.230469 Z M 38.019531 319.402344 L 45.621094 319.402344 L 45.621094 307.453125 L 38.019531 307.453125 L 38.019531 319.402344 " fill-opacity="1" fill-rule="nonzero"/><path fill="rgb(97.648621%, 97.648621%, 98.039246%)" d="M 39.105469 342.210938 L 41.277344 342.210938 L 41.277344 340.039062 L 39.105469 340.039062 L 39.105469 342.210938 " fill-opacity="1" fill-rule="nonzero"/><path fill="rgb(97.648621%, 97.648621%, 98.039246%)" d="M 57.570312 342.210938 L 59.742188 342.210938 L 59.742188 340.039062 L 57.570312 340.039062 L 57.570312 342.210938 " fill-opacity="1" fill-rule="nonzero"/><path fill="rgb(97.648621%, 97.648621%, 98.039246%)" d="M 58.65625 304.195312 L 53.226562 304.195312 L 53.226562 306.367188 L 58.65625 306.367188 L 58.65625 304.195312 " fill-opacity="1" fill-rule="nonzero"/><path fill="rgb(97.648621%, 97.648621%, 98.039246%)" d="M 58.65625 309.625 L 53.226562 309.625 L 53.226562 311.796875 L 58.65625 311.796875 L 58.65625 309.625 " fill-opacity="1" fill-rule="nonzero"/><path fill="rgb(97.648621%, 97.648621%, 98.039246%)" d="M 58.65625 315.054688 L 53.226562 315.054688 L 53.226562 317.230469 L 58.65625 317.230469 L 58.65625 315.054688 " fill-opacity="1" fill-rule="nonzero"/><path fill="rgb(97.648621%, 97.648621%, 98.039246%)" d="M 16.292969 304.195312 L 8.691406 304.195312 L 8.691406 300.933594 L 16.292969 300.933594 Z M 18.464844 298.761719 L 6.515625 298.761719 L 6.515625 306.367188 L 18.464844 306.367188 L 18.464844 298.761719 " fill-opacity="1" fill-rule="nonzero"/><g clip-path="url(#id3)"><path fill="rgb(97.648621%, 97.648621%, 98.039246%)" d="M 373.804688 319.160156 L 322.359375 319.160156 L 322.359375 317.6875 L 331.433594 317.6875 C 331.441406 317.695312 331.441406 317.710938 331.457031 317.726562 C 331.621094 317.875 331.855469 317.9375 332.074219 317.882812 C 336.679688 316.707031 345.625 318.269531 347.644531 318.644531 C 347.742188 318.699219 347.847656 318.738281 347.964844 318.738281 C 348.003906 318.738281 348.046875 318.734375 348.085938 318.730469 C 348.121094 318.734375 348.160156 318.738281 348.203125 318.738281 C 348.316406 318.738281 348.425781 318.699219 348.523438 318.644531 C 350.539062 318.261719 359.484375 316.703125 364.09375 317.882812 C 364.316406 317.9375 364.546875 317.875 364.714844 317.726562 C 364.722656 317.710938 364.722656 317.695312 364.734375 317.6875 L 373.804688 317.6875 Z M 369.96875 347.324219 L 369.136719 347.324219 L 369.136719 320.472656 L 369.96875 320.472656 Z M 358.085938 324.308594 L 358.085938 341.769531 C 358.085938 343.535156 356.640625 344.96875 354.863281 344.96875 C 353.085938 344.96875 351.640625 343.535156 351.640625 341.769531 L 351.640625 324.308594 C 351.640625 322.550781 353.085938 321.117188 354.863281 321.117188 C 356.640625 321.117188 358.085938 322.550781 358.085938 324.308594 Z M 350.324219 324.308594 L 350.324219 328.683594 L 345.605469 328.683594 L 345.605469 324.308594 C 345.605469 322.679688 344.722656 321.265625 343.414062 320.472656 L 352.515625 320.472656 C 351.207031 321.265625 350.324219 322.679688 350.324219 324.308594 Z M 344.289062 341.769531 C 344.289062 343.535156 342.84375 344.96875 341.066406 344.96875 C 339.285156 344.96875 337.847656 343.535156 337.847656 341.769531 L 337.847656 324.308594 C 337.847656 322.550781 339.285156 321.117188 341.066406 321.117188 C 342.84375 321.117188 344.289062 322.550781 344.289062 324.308594 Z M 327.027344 347.324219 L 326.203125 347.324219 L 326.203125 320.472656 L 327.027344 320.472656 Z M 332.941406 315.097656 C 334.992188 314.921875 342.695312 314.476562 347.390625 317.058594 L 347.375 317.261719 C 345.386719 316.898438 340.695312 316.136719 336.484375 316.136719 C 335.148438 316.136719 333.867188 316.21875 332.734375 316.40625 C 332.832031 315.855469 332.898438 315.414062 332.941406 315.097656 Z M 336.46875 313.523438 L 336.46875 312.15625 C 336.46875 305.796875 341.679688 300.621094 348.085938 300.621094 C 354.484375 300.621094 359.699219 305.796875 359.699219 312.15625 L 359.699219 313.523438 C 359.699219 313.5625 359.714844 313.59375 359.71875 313.632812 C 358.449219 313.628906 357 313.683594 355.492188 313.851562 C 355.5625 313.734375 355.605469 313.597656 355.589844 313.449219 C 355.285156 310.800781 354.691406 308.835938 354.667969 308.753906 C 354.5625 308.402344 354.1875 308.207031 353.84375 308.3125 C 353.496094 308.417969 353.296875 308.785156 353.398438 309.132812 C 353.410156 309.152344 353.984375 311.078125 354.277344 313.597656 C 354.292969 313.75 354.371094 313.886719 354.46875 313.984375 C 352.234375 314.304688 349.960938 314.902344 348.085938 315.957031 C 346.207031 314.902344 343.933594 314.304688 341.695312 313.984375 C 341.796875 313.886719 341.871094 313.75 341.886719 313.597656 C 342.179688 311.078125 342.761719 309.152344 342.765625 309.132812 C 342.875 308.785156 342.671875 308.417969 342.324219 308.3125 C 341.980469 308.207031 341.605469 308.402344 341.503906 308.753906 C 341.472656 308.835938 340.882812 310.800781 340.578125 313.449219 C 340.558594 313.59375 340.605469 313.734375 340.675781 313.851562 C 339.164062 313.683594 337.714844 313.628906 336.449219 313.632812 C 336.453125 313.59375 336.46875 313.5625 336.46875 313.523438 Z M 341.257812 292.53125 C 341.257812 288.796875 344.316406 285.757812 348.085938 285.757812 C 351.847656 285.757812 354.910156 288.796875 354.910156 292.53125 C 354.910156 296.273438 351.847656 299.3125 348.085938 299.3125 C 344.316406 299.3125 341.257812 296.273438 341.257812 292.53125 Z M 363.230469 315.097656 C 363.269531 315.414062 363.335938 315.855469 363.429688 316.40625 C 358.726562 315.621094 351.410156 316.789062 348.792969 317.261719 L 348.777344 317.058594 C 353.46875 314.476562 361.179688 314.921875 363.230469 315.097656 Z M 374.46875 316.371094 L 364.769531 316.371094 C 364.558594 315.1875 364.476562 314.4375 364.476562 314.433594 C 364.445312 314.121094 364.203125 313.878906 363.894531 313.84375 C 363.757812 313.828125 362.636719 313.699219 360.992188 313.65625 C 361 313.609375 361.015625 313.570312 361.015625 313.523438 L 361.015625 312.15625 C 361.015625 306.289062 357.035156 301.34375 351.617188 299.8125 C 354.34375 298.5 356.234375 295.738281 356.234375 292.53125 C 356.234375 288.074219 352.578125 284.445312 348.085938 284.445312 C 343.589844 284.445312 339.933594 288.074219 339.933594 292.53125 C 339.933594 295.738281 341.824219 298.5 344.550781 299.8125 C 339.128906 301.34375 335.148438 306.289062 335.148438 312.15625 L 335.148438 313.523438 C 335.148438 313.570312 335.164062 313.609375 335.175781 313.65625 C 333.527344 313.699219 332.40625 313.828125 332.269531 313.84375 C 331.960938 313.878906 331.726562 314.121094 331.691406 314.433594 C 331.691406 314.4375 331.613281 315.1875 331.402344 316.371094 L 321.703125 316.371094 C 321.339844 316.371094 321.042969 316.667969 321.042969 317.027344 L 321.042969 319.816406 C 321.042969 320.179688 321.339844 320.472656 321.703125 320.472656 L 324.882812 320.472656 L 324.882812 347.972656 C 324.882812 348.335938 325.179688 348.632812 325.542969 348.632812 L 327.691406 348.632812 C 328.054688 348.632812 328.351562 348.335938 328.351562 347.972656 L 328.351562 320.472656 L 338.714844 320.472656 C 337.40625 321.265625 336.523438 322.679688 336.523438 324.308594 L 336.523438 328.246094 L 332.925781 328.246094 C 332.558594 328.246094 332.265625 328.539062 332.265625 328.902344 L 332.265625 343.21875 C 332.265625 343.585938 332.558594 343.878906 332.925781 343.878906 C 333.292969 343.878906 333.585938 343.585938 333.585938 343.21875 L 333.585938 329.5625 L 336.523438 329.5625 L 336.523438 341.769531 C 336.523438 344.257812 338.558594 346.28125 341.066406 346.28125 C 343.570312 346.28125 345.605469 344.257812 345.605469 341.769531 L 345.605469 329.996094 L 350.324219 329.996094 L 350.324219 341.769531 C 350.324219 344.257812 352.359375 346.28125 354.863281 346.28125 C 357.371094 346.28125 359.40625 344.257812 359.40625 341.769531 L 359.40625 329.5625 L 362.359375 329.5625 L 362.359375 343.21875 C 362.359375 343.585938 362.65625 343.878906 363.023438 343.878906 C 363.386719 343.878906 363.683594 343.585938 363.683594 343.21875 L 363.683594 328.902344 C 363.683594 328.539062 363.386719 328.246094 363.023438 328.246094 L 359.40625 328.246094 L 359.40625 324.308594 C 359.40625 322.679688 358.519531 321.265625 357.214844 320.472656 L 367.820312 320.472656 L 367.820312 347.972656 C 367.820312 348.335938 368.113281 348.632812 368.476562 348.632812 L 370.625 348.632812 C 370.992188 348.632812 371.285156 348.335938 371.285156 347.972656 L 371.285156 320.472656 L 374.46875 320.472656 C 374.832031 320.472656 375.125 320.179688 375.125 319.816406 L 375.125 317.027344 C 375.125 316.667969 374.832031 316.371094 374.46875 316.371094 " fill-opacity="1" fill-rule="nonzero"/></g><g clip-path="url(#id4)"><path fill="rgb(97.648621%, 97.648621%, 98.039246%)" d="M 303.179688 302.472656 C 305.546875 299.414062 304.984375 295.019531 301.921875 292.65625 C 298.851562 290.28125 294.445312 290.859375 292.097656 293.917969 C 269.441406 323.230469 235.214844 340.039062 198.199219 340.039062 C 166.75 340.039062 137.398438 327.804688 115.359375 306.179688 L 129.832031 307.027344 C 133.65625 307.300781 137 304.3125 137.230469 300.453125 C 137.457031 296.59375 134.515625 293.285156 130.652344 293.058594 L 99.175781 291.210938 C 98.910156 291.195312 98.660156 291.316406 98.394531 291.332031 C 97.78125 291.363281 97.1875 291.417969 96.59375 291.613281 C 96.230469 291.734375 95.925781 291.933594 95.585938 292.109375 C 95.222656 292.300781 94.820312 292.390625 94.484375 292.65625 C 94.351562 292.757812 94.292969 292.910156 94.167969 293.019531 C 94.058594 293.113281 93.914062 293.144531 93.8125 293.246094 C 93.605469 293.453125 93.523438 293.738281 93.347656 293.96875 C 93.011719 294.398438 92.703125 294.820312 92.480469 295.304688 C 92.3125 295.667969 92.210938 296.035156 92.109375 296.421875 C 91.96875 296.953125 91.878906 297.46875 91.863281 298.019531 C 91.859375 298.21875 91.765625 298.402344 91.773438 298.605469 L 93.621094 330.058594 C 93.839844 333.773438 96.925781 336.644531 100.605469 336.644531 C 100.742188 336.644531 100.886719 336.640625 101.023438 336.632812 C 104.886719 336.40625 107.828125 333.09375 107.601562 329.238281 L 106.917969 317.601562 C 131.394531 340.933594 163.695312 354.035156 198.199219 354.035156 C 239.59375 354.035156 277.851562 335.242188 303.179688 302.472656 " fill-opacity="1" fill-rule="nonzero"/></g><g clip-path="url(#id5)"><path fill="rgb(97.648621%, 97.648621%, 98.039246%)" d="M 65.503906 221.4375 C 65.503906 241.710938 69.949219 261.101562 78.703125 279.066406 C 79.921875 281.554688 82.410156 283 85.011719 283 C 86.035156 283 87.082031 282.777344 88.074219 282.292969 C 91.550781 280.601562 92.992188 276.414062 91.300781 272.9375 C 83.480469 256.894531 79.511719 239.566406 79.511719 221.4375 C 79.511719 165.582031 117.613281 118.707031 170.417969 106.191406 L 162.011719 117.859375 C 159.753906 120.996094 160.464844 125.371094 163.605469 127.628906 C 164.839844 128.519531 166.269531 128.945312 167.6875 128.945312 C 169.863281 128.945312 172.007812 127.9375 173.378906 126.039062 L 191.804688 100.46875 C 191.960938 100.25 191.988281 99.980469 192.117188 99.75 C 192.417969 99.21875 192.691406 98.695312 192.84375 98.09375 C 192.945312 97.6875 192.941406 97.28125 192.972656 96.859375 C 193 96.476562 193.125 96.125 193.089844 95.730469 C 193.074219 95.570312 192.984375 95.445312 192.957031 95.289062 C 192.933594 95.144531 192.984375 94.996094 192.953125 94.851562 C 192.886719 94.554688 192.683594 94.328125 192.585938 94.050781 C 192.402344 93.550781 192.21875 93.078125 191.9375 92.644531 C 191.707031 92.285156 191.4375 91.988281 191.144531 91.679688 C 190.800781 91.308594 190.445312 90.984375 190.027344 90.703125 C 189.839844 90.570312 189.722656 90.367188 189.519531 90.257812 L 161.945312 74.972656 C 158.542969 73.09375 154.296875 74.320312 152.421875 77.699219 C 150.542969 81.078125 151.765625 85.335938 155.144531 87.210938 L 165.550781 92.976562 C 107.335938 107.535156 65.503906 159.5625 65.503906 221.4375 " fill-opacity="1" fill-rule="nonzero"/></g><path fill="rgb(97.648621%, 97.648621%, 98.039246%)" d="M 346.359375 260.003906 C 344.75 256.492188 340.578125 254.933594 337.085938 256.546875 L 324.417969 262.328125 C 328.6875 249.242188 330.894531 235.558594 330.894531 221.4375 C 330.894531 152.691406 279.324219 95.941406 210.941406 89.425781 C 207.015625 89.105469 203.667969 91.886719 203.308594 95.730469 C 202.9375 99.578125 205.765625 102.992188 209.613281 103.363281 C 270.765625 109.183594 316.886719 159.945312 316.886719 221.4375 C 316.886719 232.996094 315.09375 244.175781 311.898438 254.957031 L 308.328125 243.863281 C 307.148438 240.1875 303.199219 238.167969 299.519531 239.34375 C 295.832031 240.523438 293.808594 244.46875 294.992188 248.148438 L 304.644531 278.144531 C 305.21875 279.925781 306.519531 281.339844 308.175781 282.179688 C 308.234375 282.210938 308.265625 282.265625 308.324219 282.292969 C 308.328125 282.296875 308.332031 282.296875 308.335938 282.296875 C 308.390625 282.324219 308.429688 282.382812 308.488281 282.40625 C 309.382812 282.804688 310.347656 283 311.3125 283 C 311.324219 283 311.335938 282.992188 311.351562 282.992188 C 311.363281 282.992188 311.375 283 311.386719 283 C 312.320312 283 313.210938 282.753906 314.058594 282.402344 C 314.113281 282.382812 314.167969 282.394531 314.21875 282.367188 L 342.898438 269.28125 C 346.417969 267.675781 347.964844 263.523438 346.359375 260.003906 " fill-opacity="1" fill-rule="nonzero"/><path fill="rgb(97.648621%, 97.648621%, 98.039246%)" d="M 146.789062 232.4375 C 147.496094 232.4375 148.082031 232.550781 148.550781 232.769531 C 149.015625 232.992188 149.25 233.277344 149.25 233.625 C 149.25 233.777344 149.203125 233.914062 149.101562 234.039062 C 149.003906 234.15625 148.878906 234.214844 148.726562 234.214844 C 148.613281 234.214844 148.519531 234.203125 148.449219 234.167969 C 148.382812 234.128906 148.292969 234.070312 148.179688 233.988281 C 148.125 233.9375 148.042969 233.875 147.929688 233.804688 C 147.816406 233.753906 147.664062 233.707031 147.464844 233.667969 C 147.273438 233.632812 147.097656 233.613281 146.9375 233.613281 C 146.46875 233.613281 146.058594 233.722656 145.699219 233.941406 C 145.34375 234.152344 145.066406 234.449219 144.871094 234.832031 C 144.675781 235.210938 144.582031 235.628906 144.582031 236.09375 C 144.582031 236.566406 144.675781 236.988281 144.863281 237.367188 C 145.058594 237.738281 145.328125 238.035156 145.675781 238.246094 C 146.023438 238.460938 146.421875 238.566406 146.871094 238.566406 C 147.332031 238.566406 147.707031 238.496094 147.988281 238.351562 C 148.054688 238.316406 148.140625 238.261719 148.246094 238.179688 C 148.335938 238.109375 148.414062 238.054688 148.480469 238.019531 C 148.546875 237.980469 148.628906 237.960938 148.726562 237.960938 C 148.90625 237.960938 149.050781 238.019531 149.152344 238.136719 C 149.253906 238.246094 149.304688 238.390625 149.304688 238.566406 C 149.304688 238.753906 149.1875 238.941406 148.949219 239.125 C 148.710938 239.308594 148.390625 239.457031 147.996094 239.574219 C 147.601562 239.6875 147.175781 239.746094 146.722656 239.746094 C 146.039062 239.746094 145.441406 239.589844 144.925781 239.273438 C 144.410156 238.953125 144.007812 238.515625 143.726562 237.957031 C 143.445312 237.398438 143.308594 236.777344 143.308594 236.09375 C 143.308594 235.402344 143.453125 234.78125 143.746094 234.222656 C 144.039062 233.667969 144.449219 233.230469 144.976562 232.914062 C 145.503906 232.597656 146.109375 232.4375 146.789062 232.4375 Z M 146.789062 232.4375 " fill-opacity="1" fill-rule="nonzero"/><path fill="rgb(97.648621%, 97.648621%, 98.039246%)" d="M 157.253906 236.105469 C 157.253906 236.804688 157.097656 237.425781 156.78125 237.980469 C 156.46875 238.53125 156.042969 238.964844 155.503906 239.277344 C 154.964844 239.589844 154.371094 239.746094 153.71875 239.746094 C 153.066406 239.746094 152.46875 239.589844 151.929688 239.277344 C 151.390625 238.964844 150.964844 238.53125 150.65625 237.980469 C 150.34375 237.425781 150.1875 236.804688 150.1875 236.105469 C 150.1875 235.410156 150.34375 234.78125 150.65625 234.214844 C 150.964844 233.65625 151.390625 233.21875 151.929688 232.90625 C 152.46875 232.597656 153.066406 232.4375 153.71875 232.4375 C 154.371094 232.4375 154.964844 232.597656 155.503906 232.90625 C 156.042969 233.21875 156.46875 233.65625 156.78125 234.214844 C 157.097656 234.78125 157.253906 235.410156 157.253906 236.105469 Z M 155.980469 236.105469 C 155.980469 235.621094 155.878906 235.191406 155.679688 234.8125 C 155.480469 234.433594 155.207031 234.136719 154.863281 233.925781 C 154.519531 233.71875 154.140625 233.613281 153.71875 233.613281 C 153.300781 233.613281 152.917969 233.71875 152.574219 233.925781 C 152.234375 234.136719 151.960938 234.433594 151.761719 234.8125 C 151.5625 235.191406 151.460938 235.621094 151.460938 236.105469 C 151.460938 236.578125 151.5625 237 151.761719 237.378906 C 151.960938 237.753906 152.234375 238.042969 152.574219 238.25 C 152.917969 238.460938 153.300781 238.566406 153.71875 238.566406 C 154.140625 238.566406 154.519531 238.460938 154.863281 238.25 C 155.207031 238.042969 155.480469 237.753906 155.679688 237.378906 C 155.878906 237 155.980469 236.578125 155.980469 236.105469 Z M 155.980469 236.105469 " fill-opacity="1" fill-rule="nonzero"/><path fill="rgb(97.648621%, 97.648621%, 98.039246%)" d="M 164.414062 229.707031 C 164.601562 229.707031 164.753906 229.769531 164.875 229.890625 C 164.996094 230.011719 165.058594 230.164062 165.058594 230.347656 L 165.058594 238.972656 C 165.058594 239.148438 164.996094 239.300781 164.875 239.425781 C 164.753906 239.550781 164.601562 239.609375 164.414062 239.609375 C 164.226562 239.609375 164.074219 239.554688 163.957031 239.433594 C 163.84375 239.308594 163.785156 239.15625 163.785156 238.972656 L 163.785156 238.597656 C 163.5625 238.917969 163.25 239.191406 162.84375 239.414062 C 162.4375 239.636719 162 239.746094 161.535156 239.746094 C 160.925781 239.746094 160.378906 239.589844 159.886719 239.277344 C 159.394531 238.964844 159.007812 238.527344 158.722656 237.96875 C 158.441406 237.414062 158.296875 236.785156 158.296875 236.09375 C 158.296875 235.394531 158.4375 234.769531 158.714844 234.210938 C 159 233.652344 159.382812 233.21875 159.871094 232.90625 C 160.363281 232.597656 160.90625 232.4375 161.496094 232.4375 C 161.96875 232.4375 162.402344 232.539062 162.808594 232.734375 C 163.207031 232.929688 163.535156 233.183594 163.785156 233.496094 L 163.785156 230.347656 C 163.785156 230.164062 163.84375 230.011719 163.957031 229.890625 C 164.074219 229.769531 164.226562 229.707031 164.414062 229.707031 Z M 161.679688 238.566406 C 162.101562 238.566406 162.476562 238.460938 162.800781 238.246094 C 163.128906 238.035156 163.382812 237.738281 163.5625 237.367188 C 163.75 236.988281 163.839844 236.566406 163.839844 236.09375 C 163.839844 235.628906 163.75 235.210938 163.5625 234.832031 C 163.382812 234.449219 163.128906 234.152344 162.800781 233.941406 C 162.476562 233.722656 162.101562 233.613281 161.679688 233.613281 C 161.261719 233.613281 160.890625 233.722656 160.5625 233.941406 C 160.238281 234.152344 159.984375 234.449219 159.800781 234.832031 C 159.617188 235.210938 159.527344 235.628906 159.527344 236.09375 C 159.527344 236.566406 159.617188 236.988281 159.800781 237.367188 C 159.984375 237.738281 160.238281 238.035156 160.5625 238.246094 C 160.890625 238.460938 161.261719 238.566406 161.679688 238.566406 Z M 161.679688 238.566406 " fill-opacity="1" fill-rule="nonzero"/><path fill="rgb(97.648621%, 97.648621%, 98.039246%)" d="M 173.097656 235.835938 C 173.089844 236 173.019531 236.136719 172.894531 236.246094 C 172.769531 236.355469 172.625 236.414062 172.457031 236.414062 L 167.746094 236.414062 C 167.808594 237.066406 168.054688 237.585938 168.484375 237.980469 C 168.917969 238.371094 169.449219 238.566406 170.078125 238.566406 C 170.503906 238.566406 170.847656 238.503906 171.117188 238.382812 C 171.386719 238.253906 171.625 238.09375 171.828125 237.894531 C 171.960938 237.816406 172.089844 237.777344 172.21875 237.777344 C 172.367188 237.777344 172.496094 237.832031 172.597656 237.9375 C 172.699219 238.046875 172.753906 238.171875 172.753906 238.3125 C 172.753906 238.503906 172.660156 238.671875 172.480469 238.824219 C 172.222656 239.082031 171.878906 239.300781 171.449219 239.480469 C 171.019531 239.65625 170.585938 239.746094 170.144531 239.746094 C 169.417969 239.746094 168.78125 239.597656 168.230469 239.292969 C 167.6875 238.988281 167.261719 238.5625 166.964844 238.019531 C 166.664062 237.472656 166.515625 236.859375 166.515625 236.171875 C 166.515625 235.421875 166.667969 234.765625 166.976562 234.199219 C 167.285156 233.632812 167.691406 233.199219 168.195312 232.894531 C 168.699219 232.589844 169.242188 232.4375 169.820312 232.4375 C 170.390625 232.4375 170.925781 232.585938 171.425781 232.882812 C 171.921875 233.175781 172.324219 233.578125 172.628906 234.101562 C 172.933594 234.617188 173.089844 235.195312 173.097656 235.835938 Z M 169.820312 233.613281 C 169.316406 233.613281 168.886719 233.753906 168.519531 234.039062 C 168.15625 234.316406 167.914062 234.75 167.800781 235.34375 L 171.75 235.34375 L 171.75 235.230469 C 171.703125 234.761719 171.492188 234.375 171.109375 234.070312 C 170.730469 233.765625 170.300781 233.613281 169.820312 233.613281 Z M 169.820312 233.613281 " fill-opacity="1" fill-rule="nonzero"/><path fill="rgb(97.648621%, 97.648621%, 98.039246%)" d="M 181.277344 230.859375 C 180.980469 230.859375 180.765625 230.949219 180.625 231.128906 C 180.488281 231.304688 180.421875 231.523438 180.421875 231.78125 L 180.421875 232.714844 L 181.746094 232.714844 C 181.925781 232.714844 182.070312 232.773438 182.183594 232.886719 C 182.292969 233 182.347656 233.136719 182.347656 233.304688 C 182.347656 233.476562 182.292969 233.613281 182.183594 233.722656 C 182.070312 233.832031 181.925781 233.882812 181.746094 233.882812 L 180.421875 233.882812 L 180.421875 238.972656 C 180.421875 239.148438 180.359375 239.300781 180.238281 239.425781 C 180.117188 239.550781 179.964844 239.609375 179.777344 239.609375 C 179.601562 239.609375 179.449219 239.550781 179.328125 239.425781 C 179.207031 239.300781 179.148438 239.148438 179.148438 238.972656 L 179.148438 233.882812 L 178.320312 233.882812 C 178.148438 233.882812 178.007812 233.832031 177.886719 233.722656 C 177.773438 233.613281 177.714844 233.476562 177.714844 233.304688 C 177.714844 233.136719 177.773438 233 177.886719 232.886719 C 178.007812 232.773438 178.148438 232.714844 178.320312 232.714844 L 179.148438 232.714844 L 179.148438 231.78125 C 179.148438 231.15625 179.347656 230.660156 179.753906 230.292969 C 180.152344 229.921875 180.71875 229.730469 181.449219 229.730469 C 181.753906 229.730469 182.019531 229.789062 182.25 229.90625 C 182.484375 230.015625 182.601562 230.179688 182.601562 230.402344 C 182.601562 230.570312 182.546875 230.714844 182.445312 230.828125 C 182.34375 230.9375 182.21875 230.992188 182.078125 230.992188 C 182.042969 230.992188 181.949219 230.976562 181.789062 230.9375 C 181.589844 230.886719 181.421875 230.859375 181.277344 230.859375 Z M 181.277344 230.859375 " fill-opacity="1" fill-rule="nonzero"/><path fill="rgb(97.648621%, 97.648621%, 98.039246%)" d="M 190.136719 236.105469 C 190.136719 236.804688 189.980469 237.425781 189.664062 237.980469 C 189.351562 238.53125 188.925781 238.964844 188.386719 239.277344 C 187.847656 239.589844 187.253906 239.746094 186.601562 239.746094 C 185.949219 239.746094 185.351562 239.589844 184.8125 239.277344 C 184.273438 238.964844 183.847656 238.53125 183.539062 237.980469 C 183.226562 237.425781 183.070312 236.804688 183.070312 236.105469 C 183.070312 235.410156 183.226562 234.78125 183.539062 234.214844 C 183.847656 233.65625 184.273438 233.21875 184.8125 232.90625 C 185.351562 232.597656 185.949219 232.4375 186.601562 232.4375 C 187.253906 232.4375 187.847656 232.597656 188.386719 232.90625 C 188.925781 233.21875 189.351562 233.65625 189.664062 234.214844 C 189.980469 234.78125 190.136719 235.410156 190.136719 236.105469 Z M 188.863281 236.105469 C 188.863281 235.621094 188.765625 235.191406 188.5625 234.8125 C 188.363281 234.433594 188.089844 234.136719 187.746094 233.925781 C 187.402344 233.71875 187.023438 233.613281 186.601562 233.613281 C 186.183594 233.613281 185.800781 233.71875 185.457031 233.925781 C 185.117188 234.136719 184.84375 234.433594 184.644531 234.8125 C 184.445312 235.191406 184.34375 235.621094 184.34375 236.105469 C 184.34375 236.578125 184.445312 237 184.644531 237.378906 C 184.84375 237.753906 185.117188 238.042969 185.457031 238.25 C 185.800781 238.460938 186.183594 238.566406 186.601562 238.566406 C 187.023438 238.566406 187.402344 238.460938 187.746094 238.25 C 188.089844 238.042969 188.363281 237.753906 188.5625 237.378906 C 188.765625 237 188.863281 236.578125 188.863281 236.105469 Z M 188.863281 236.105469 " fill-opacity="1" fill-rule="nonzero"/><path fill="rgb(97.648621%, 97.648621%, 98.039246%)" d="M 195.101562 232.4375 C 195.332031 232.4375 195.535156 232.5 195.703125 232.617188 C 195.875 232.738281 195.960938 232.886719 195.960938 233.066406 C 195.960938 233.28125 195.902344 233.445312 195.789062 233.558594 C 195.679688 233.667969 195.542969 233.722656 195.382812 233.722656 C 195.304688 233.722656 195.183594 233.699219 195.019531 233.644531 C 194.835938 233.578125 194.6875 233.546875 194.582031 233.546875 C 194.304688 233.546875 194.03125 233.644531 193.769531 233.835938 C 193.507812 234.027344 193.292969 234.292969 193.125 234.628906 C 192.960938 234.960938 192.878906 235.332031 192.878906 235.742188 L 192.878906 238.972656 C 192.878906 239.148438 192.816406 239.300781 192.695312 239.425781 C 192.574219 239.550781 192.425781 239.609375 192.238281 239.609375 C 192.050781 239.609375 191.894531 239.554688 191.777344 239.433594 C 191.664062 239.308594 191.605469 239.15625 191.605469 238.972656 L 191.605469 233.238281 C 191.605469 233.0625 191.664062 232.914062 191.785156 232.789062 C 191.90625 232.664062 192.058594 232.597656 192.238281 232.597656 C 192.425781 232.597656 192.574219 232.664062 192.695312 232.789062 C 192.816406 232.914062 192.878906 233.0625 192.878906 233.238281 L 192.878906 233.921875 C 193.074219 233.488281 193.371094 233.132812 193.765625 232.863281 C 194.160156 232.589844 194.601562 232.449219 195.101562 232.4375 Z M 195.101562 232.4375 " fill-opacity="1" fill-rule="nonzero"/><path fill="rgb(97.648621%, 97.648621%, 98.039246%)" d="M 200.441406 238.515625 C 200.363281 238.390625 200.324219 238.269531 200.324219 238.152344 C 200.324219 237.972656 200.414062 237.820312 200.601562 237.699219 C 200.691406 237.636719 200.792969 237.605469 200.90625 237.605469 C 201.070312 237.605469 201.21875 237.671875 201.351562 237.804688 C 201.617188 238.105469 201.90625 238.335938 202.210938 238.484375 C 202.523438 238.636719 202.890625 238.714844 203.320312 238.714844 C 203.660156 238.707031 203.957031 238.628906 204.21875 238.480469 C 204.476562 238.332031 204.605469 238.09375 204.605469 237.765625 C 204.605469 237.464844 204.472656 237.230469 204.210938 237.070312 C 203.949219 236.90625 203.5625 236.761719 203.054688 236.628906 C 202.554688 236.492188 202.136719 236.351562 201.804688 236.203125 C 201.476562 236.054688 201.199219 235.84375 200.96875 235.5625 C 200.742188 235.28125 200.632812 234.910156 200.632812 234.457031 C 200.632812 234.054688 200.742188 233.703125 200.96875 233.398438 C 201.199219 233.09375 201.5 232.859375 201.878906 232.691406 C 202.261719 232.523438 202.671875 232.4375 203.117188 232.4375 C 203.546875 232.4375 203.972656 232.519531 204.394531 232.679688 C 204.820312 232.839844 205.167969 233.085938 205.433594 233.417969 C 205.542969 233.539062 205.59375 233.667969 205.59375 233.804688 C 205.59375 233.945312 205.523438 234.082031 205.378906 234.214844 C 205.289062 234.300781 205.179688 234.339844 205.046875 234.339844 C 204.886719 234.339844 204.757812 234.289062 204.660156 234.179688 C 204.472656 233.964844 204.238281 233.796875 203.964844 233.679688 C 203.695312 233.566406 203.394531 233.507812 203.066406 233.507812 C 202.726562 233.507812 202.4375 233.578125 202.199219 233.71875 C 201.964844 233.855469 201.847656 234.085938 201.847656 234.417969 C 201.855469 234.730469 201.992188 234.964844 202.253906 235.113281 C 202.515625 235.265625 202.921875 235.414062 203.46875 235.558594 C 203.9375 235.679688 204.328125 235.8125 204.640625 235.957031 C 204.957031 236.101562 205.222656 236.3125 205.433594 236.597656 C 205.648438 236.878906 205.753906 237.242188 205.753906 237.699219 C 205.753906 238.117188 205.632812 238.480469 205.390625 238.785156 C 205.152344 239.09375 204.839844 239.332031 204.449219 239.5 C 204.058594 239.664062 203.648438 239.746094 203.214844 239.746094 C 202.652344 239.746094 202.132812 239.648438 201.652344 239.453125 C 201.175781 239.253906 200.773438 238.945312 200.441406 238.515625 Z M 200.441406 238.515625 " fill-opacity="1" fill-rule="nonzero"/><path fill="rgb(97.648621%, 97.648621%, 98.039246%)" d="M 209.125 233.839844 L 209.125 237.832031 C 209.125 238.277344 209.324219 238.496094 209.726562 238.496094 C 209.792969 238.496094 209.878906 238.484375 209.984375 238.453125 C 210.09375 238.421875 210.175781 238.40625 210.238281 238.40625 C 210.351562 238.40625 210.449219 238.453125 210.535156 238.554688 C 210.613281 238.652344 210.65625 238.777344 210.65625 238.929688 C 210.65625 239.117188 210.546875 239.277344 210.332031 239.414062 C 210.117188 239.546875 209.875 239.609375 209.609375 239.609375 C 209.316406 239.609375 209.046875 239.582031 208.800781 239.519531 C 208.554688 239.457031 208.332031 239.300781 208.140625 239.046875 C 207.953125 238.792969 207.859375 238.402344 207.859375 237.882812 L 207.859375 233.839844 L 207.082031 233.839844 C 206.910156 233.839844 206.769531 233.785156 206.660156 233.675781 C 206.546875 233.566406 206.492188 233.421875 206.492188 233.25 C 206.492188 233.082031 206.546875 232.945312 206.660156 232.839844 C 206.769531 232.734375 206.910156 232.679688 207.082031 232.679688 L 207.859375 232.679688 L 207.859375 231.554688 C 207.859375 231.378906 207.917969 231.226562 208.035156 231.105469 C 208.160156 230.976562 208.3125 230.914062 208.496094 230.914062 C 208.675781 230.914062 208.828125 230.976562 208.945312 231.105469 C 209.066406 231.226562 209.125 231.378906 209.125 231.554688 L 209.125 232.679688 L 210.238281 232.679688 C 210.40625 232.679688 210.546875 232.734375 210.65625 232.84375 C 210.769531 232.957031 210.828125 233.097656 210.828125 233.269531 C 210.828125 233.4375 210.769531 233.574219 210.65625 233.679688 C 210.546875 233.789062 210.40625 233.839844 210.238281 233.839844 Z M 209.125 233.839844 " fill-opacity="1" fill-rule="nonzero"/><path fill="rgb(97.648621%, 97.648621%, 98.039246%)" d="M 217.53125 232.597656 C 217.71875 232.597656 217.875 232.664062 217.992188 232.789062 C 218.117188 232.914062 218.179688 233.0625 218.179688 233.238281 L 218.179688 236.800781 C 218.179688 237.726562 217.921875 238.449219 217.402344 238.964844 C 216.890625 239.480469 216.167969 239.734375 215.230469 239.734375 C 214.304688 239.734375 213.585938 239.480469 213.074219 238.964844 C 212.5625 238.449219 212.308594 237.726562 212.308594 236.800781 L 212.308594 233.238281 C 212.308594 233.0625 212.367188 232.914062 212.488281 232.789062 C 212.613281 232.664062 212.761719 232.597656 212.945312 232.597656 C 213.128906 232.597656 213.277344 232.664062 213.398438 232.789062 C 213.523438 232.914062 213.582031 233.0625 213.582031 233.238281 L 213.582031 236.800781 C 213.582031 237.96875 214.132812 238.554688 215.230469 238.554688 C 215.777344 238.554688 216.191406 238.40625 216.472656 238.109375 C 216.761719 237.816406 216.90625 237.378906 216.90625 236.800781 L 216.90625 233.238281 C 216.90625 233.0625 216.964844 232.914062 217.082031 232.789062 C 217.207031 232.664062 217.355469 232.597656 217.53125 232.597656 Z M 217.53125 232.597656 " fill-opacity="1" fill-rule="nonzero"/><path fill="rgb(97.648621%, 97.648621%, 98.039246%)" d="M 225.761719 229.707031 C 225.949219 229.707031 226.105469 229.769531 226.222656 229.890625 C 226.347656 230.011719 226.410156 230.164062 226.410156 230.347656 L 226.410156 238.972656 C 226.410156 239.148438 226.347656 239.300781 226.222656 239.425781 C 226.105469 239.550781 225.949219 239.609375 225.761719 239.609375 C 225.578125 239.609375 225.425781 239.554688 225.308594 239.433594 C 225.191406 239.308594 225.136719 239.15625 225.136719 238.972656 L 225.136719 238.597656 C 224.914062 238.917969 224.601562 239.191406 224.195312 239.414062 C 223.789062 239.636719 223.351562 239.746094 222.882812 239.746094 C 222.277344 239.746094 221.726562 239.589844 221.234375 239.277344 C 220.746094 238.964844 220.359375 238.527344 220.074219 237.96875 C 219.789062 237.414062 219.648438 236.785156 219.648438 236.09375 C 219.648438 235.394531 219.785156 234.769531 220.066406 234.210938 C 220.347656 233.652344 220.734375 233.21875 221.222656 232.90625 C 221.714844 232.597656 222.257812 232.4375 222.847656 232.4375 C 223.316406 232.4375 223.753906 232.539062 224.15625 232.734375 C 224.558594 232.929688 224.882812 233.183594 225.136719 233.496094 L 225.136719 230.347656 C 225.136719 230.164062 225.191406 230.011719 225.308594 229.890625 C 225.425781 229.769531 225.578125 229.707031 225.761719 229.707031 Z M 223.03125 238.566406 C 223.453125 238.566406 223.828125 238.460938 224.152344 238.246094 C 224.476562 238.035156 224.730469 237.738281 224.914062 237.367188 C 225.097656 236.988281 225.191406 236.566406 225.191406 236.09375 C 225.191406 235.628906 225.097656 235.210938 224.914062 234.832031 C 224.730469 234.449219 224.476562 234.152344 224.152344 233.941406 C 223.828125 233.722656 223.453125 233.613281 223.03125 233.613281 C 222.613281 233.613281 222.238281 233.722656 221.910156 233.941406 C 221.585938 234.152344 221.332031 234.449219 221.148438 234.832031 C 220.96875 235.210938 220.878906 235.628906 220.878906 236.09375 C 220.878906 236.566406 220.96875 236.988281 221.148438 237.367188 C 221.332031 237.738281 221.585938 238.035156 221.910156 238.246094 C 222.238281 238.460938 222.613281 238.566406 223.03125 238.566406 Z M 223.03125 238.566406 " fill-opacity="1" fill-rule="nonzero"/><path fill="rgb(97.648621%, 97.648621%, 98.039246%)" d="M 234.449219 235.835938 C 234.4375 236 234.371094 236.136719 234.246094 236.246094 C 234.121094 236.355469 233.976562 236.414062 233.808594 236.414062 L 229.097656 236.414062 C 229.15625 237.066406 229.402344 237.585938 229.832031 237.980469 C 230.265625 238.371094 230.800781 238.566406 231.425781 238.566406 C 231.851562 238.566406 232.199219 238.503906 232.464844 238.382812 C 232.738281 238.253906 232.972656 238.09375 233.179688 237.894531 C 233.3125 237.816406 233.441406 237.777344 233.566406 237.777344 C 233.71875 237.777344 233.847656 237.832031 233.949219 237.9375 C 234.050781 238.046875 234.101562 238.171875 234.101562 238.3125 C 234.101562 238.503906 234.011719 238.671875 233.832031 238.824219 C 233.574219 239.082031 233.230469 239.300781 232.796875 239.480469 C 232.371094 239.65625 231.9375 239.746094 231.496094 239.746094 C 230.769531 239.746094 230.128906 239.597656 229.582031 239.292969 C 229.035156 238.988281 228.613281 238.5625 228.316406 238.019531 C 228.015625 237.472656 227.867188 236.859375 227.867188 236.171875 C 227.867188 235.421875 228.019531 234.765625 228.328125 234.199219 C 228.632812 233.632812 229.039062 233.199219 229.542969 232.894531 C 230.050781 232.589844 230.589844 232.4375 231.167969 232.4375 C 231.742188 232.4375 232.277344 232.585938 232.773438 232.882812 C 233.273438 233.175781 233.675781 233.578125 233.980469 234.101562 C 234.28125 234.617188 234.4375 235.195312 234.449219 235.835938 Z M 231.167969 233.613281 C 230.667969 233.613281 230.234375 233.753906 229.871094 234.039062 C 229.503906 234.316406 229.265625 234.75 229.152344 235.34375 L 233.101562 235.34375 L 233.101562 235.230469 C 233.054688 234.761719 232.84375 234.375 232.460938 234.070312 C 232.082031 233.765625 231.652344 233.613281 231.167969 233.613281 Z M 231.167969 233.613281 " fill-opacity="1" fill-rule="nonzero"/><path fill="rgb(97.648621%, 97.648621%, 98.039246%)" d="M 239.492188 232.4375 C 241.097656 232.4375 241.902344 233.402344 241.902344 235.328125 L 241.902344 238.972656 C 241.902344 239.148438 241.84375 239.300781 241.71875 239.425781 C 241.597656 239.550781 241.449219 239.609375 241.265625 239.609375 C 241.082031 239.609375 240.933594 239.550781 240.808594 239.425781 C 240.6875 239.300781 240.628906 239.148438 240.628906 238.972656 L 240.628906 235.34375 C 240.628906 234.8125 240.507812 234.394531 240.269531 234.082031 C 240.027344 233.769531 239.636719 233.613281 239.09375 233.613281 C 238.734375 233.613281 238.410156 233.691406 238.121094 233.847656 C 237.832031 234.003906 237.605469 234.214844 237.4375 234.480469 C 237.273438 234.742188 237.191406 235.03125 237.191406 235.34375 L 237.191406 238.972656 C 237.191406 239.148438 237.128906 239.300781 237.007812 239.425781 C 236.886719 239.550781 236.738281 239.609375 236.550781 239.609375 C 236.363281 239.609375 236.210938 239.554688 236.089844 239.433594 C 235.976562 239.308594 235.917969 239.15625 235.917969 238.972656 L 235.917969 233.238281 C 235.917969 233.0625 235.976562 232.914062 236.097656 232.789062 C 236.21875 232.664062 236.371094 232.597656 236.550781 232.597656 C 236.738281 232.597656 236.886719 232.664062 237.007812 232.789062 C 237.128906 232.914062 237.191406 233.0625 237.191406 233.238281 L 237.191406 233.707031 C 237.425781 233.347656 237.75 233.050781 238.164062 232.808594 C 238.578125 232.5625 239.019531 232.4375 239.492188 232.4375 Z M 239.492188 232.4375 " fill-opacity="1" fill-rule="nonzero"/><path fill="rgb(97.648621%, 97.648621%, 98.039246%)" d="M 245.703125 233.839844 L 245.703125 237.832031 C 245.703125 238.277344 245.902344 238.496094 246.304688 238.496094 C 246.371094 238.496094 246.457031 238.484375 246.5625 238.453125 C 246.667969 238.421875 246.753906 238.40625 246.816406 238.40625 C 246.929688 238.40625 247.027344 238.453125 247.109375 238.554688 C 247.191406 238.652344 247.234375 238.777344 247.234375 238.929688 C 247.234375 239.117188 247.125 239.277344 246.90625 239.414062 C 246.695312 239.546875 246.453125 239.609375 246.1875 239.609375 C 245.894531 239.609375 245.621094 239.582031 245.375 239.519531 C 245.128906 239.457031 244.910156 239.300781 244.71875 239.046875 C 244.527344 238.792969 244.433594 238.402344 244.433594 237.882812 L 244.433594 233.839844 L 243.660156 233.839844 C 243.488281 233.839844 243.347656 233.785156 243.234375 233.675781 C 243.125 233.566406 243.070312 233.421875 243.070312 233.25 C 243.070312 233.082031 243.125 232.945312 243.234375 232.839844 C 243.347656 232.734375 243.488281 232.679688 243.660156 232.679688 L 244.433594 232.679688 L 244.433594 231.554688 C 244.433594 231.378906 244.492188 231.226562 244.613281 231.105469 C 244.738281 230.976562 244.890625 230.914062 245.074219 230.914062 C 245.253906 230.914062 245.402344 230.976562 245.523438 231.105469 C 245.640625 231.226562 245.703125 231.378906 245.703125 231.554688 L 245.703125 232.679688 L 246.816406 232.679688 C 246.984375 232.679688 247.125 232.734375 247.234375 232.84375 C 247.347656 232.957031 247.40625 233.097656 247.40625 233.269531 C 247.40625 233.4375 247.347656 233.574219 247.234375 233.679688 C 247.125 233.789062 246.984375 233.839844 246.816406 233.839844 Z M 245.703125 233.839844 " fill-opacity="1" fill-rule="nonzero"/><path fill="rgb(97.648621%, 97.648621%, 98.039246%)" d="M 248.488281 238.515625 C 248.410156 238.390625 248.371094 238.269531 248.371094 238.152344 C 248.371094 237.972656 248.460938 237.820312 248.648438 237.699219 C 248.738281 237.636719 248.839844 237.605469 248.953125 237.605469 C 249.117188 237.605469 249.265625 237.671875 249.398438 237.804688 C 249.664062 238.105469 249.953125 238.335938 250.257812 238.484375 C 250.570312 238.636719 250.9375 238.714844 251.367188 238.714844 C 251.707031 238.707031 252.007812 238.628906 252.265625 238.480469 C 252.523438 238.332031 252.652344 238.09375 252.652344 237.765625 C 252.652344 237.464844 252.519531 237.230469 252.257812 237.070312 C 251.996094 236.90625 251.609375 236.761719 251.101562 236.628906 C 250.601562 236.492188 250.183594 236.351562 249.851562 236.203125 C 249.523438 236.054688 249.246094 235.84375 249.015625 235.5625 C 248.789062 235.28125 248.679688 234.910156 248.679688 234.457031 C 248.679688 234.054688 248.789062 233.703125 249.015625 233.398438 C 249.246094 233.09375 249.546875 232.859375 249.925781 232.691406 C 250.308594 232.523438 250.71875 232.4375 251.164062 232.4375 C 251.59375 232.4375 252.019531 232.519531 252.441406 232.679688 C 252.867188 232.839844 253.214844 233.085938 253.480469 233.417969 C 253.589844 233.539062 253.640625 233.667969 253.640625 233.804688 C 253.640625 233.945312 253.570312 234.082031 253.425781 234.214844 C 253.335938 234.300781 253.226562 234.339844 253.09375 234.339844 C 252.933594 234.339844 252.804688 234.289062 252.707031 234.179688 C 252.519531 233.964844 252.285156 233.796875 252.011719 233.679688 C 251.742188 233.566406 251.441406 233.507812 251.113281 233.507812 C 250.773438 233.507812 250.484375 233.578125 250.246094 233.71875 C 250.011719 233.855469 249.894531 234.085938 249.894531 234.417969 C 249.902344 234.730469 250.039062 234.964844 250.300781 235.113281 C 250.5625 235.265625 250.96875 235.414062 251.515625 235.558594 C 251.984375 235.679688 252.375 235.8125 252.6875 235.957031 C 253.003906 236.101562 253.269531 236.3125 253.480469 236.597656 C 253.695312 236.878906 253.800781 237.242188 253.800781 237.699219 C 253.800781 238.117188 253.679688 238.480469 253.4375 238.785156 C 253.199219 239.09375 252.886719 239.332031 252.496094 239.5 C 252.109375 239.664062 251.695312 239.746094 251.261719 239.746094 C 250.699219 239.746094 250.179688 239.648438 249.699219 239.453125 C 249.222656 239.253906 248.820312 238.945312 248.488281 238.515625 Z M 248.488281 238.515625 " fill-opacity="1" fill-rule="nonzero"/><g clip-path="url(#id6)"><path fill="rgb(97.648621%, 97.648621%, 98.039246%)" d="M 179.199219 189.617188 C 177.917969 189.617188 176.875 190.664062 176.875 191.945312 L 176.875 224.496094 C 176.875 225.777344 177.917969 226.820312 179.199219 226.820312 L 217.910156 226.820312 C 219.191406 226.820312 220.234375 225.777344 220.234375 224.496094 L 220.234375 191.945312 C 220.234375 190.664062 219.191406 189.617188 217.910156 189.617188 Z M 179.199219 191.167969 L 217.910156 191.167969 C 218.339844 191.167969 218.683594 191.515625 218.683594 191.945312 L 218.683594 224.496094 C 218.683594 224.921875 218.339844 225.269531 217.910156 225.269531 L 179.199219 225.269531 C 178.773438 225.269531 178.425781 224.921875 178.425781 224.496094 L 178.425781 198.917969 L 210.167969 198.917969 C 210.597656 198.917969 210.941406 198.570312 210.941406 198.144531 C 210.941406 197.714844 210.597656 197.367188 210.167969 197.367188 L 178.425781 197.367188 L 178.425781 191.945312 C 178.425781 191.515625 178.773438 191.167969 179.199219 191.167969 Z M 181.519531 192.71875 C 181.09375 192.71875 180.746094 193.066406 180.746094 193.492188 L 180.746094 195.042969 C 180.746094 195.46875 181.09375 195.820312 181.519531 195.820312 C 181.949219 195.820312 182.292969 195.46875 182.292969 195.042969 L 182.292969 193.492188 C 182.292969 193.066406 181.949219 192.71875 181.519531 192.71875 Z M 185.390625 192.71875 C 184.960938 192.71875 184.617188 193.066406 184.617188 193.492188 L 184.617188 195.042969 C 184.617188 195.46875 184.960938 195.820312 185.390625 195.820312 C 185.824219 195.820312 186.167969 195.46875 186.167969 195.042969 L 186.167969 193.492188 C 186.167969 193.066406 185.824219 192.71875 185.390625 192.71875 Z M 189.265625 192.71875 C 188.832031 192.71875 188.488281 193.066406 188.488281 193.492188 L 188.488281 195.042969 C 188.488281 195.46875 188.832031 195.820312 189.265625 195.820312 C 189.691406 195.820312 190.039062 195.46875 190.039062 195.042969 L 190.039062 193.492188 C 190.039062 193.066406 189.691406 192.71875 189.265625 192.71875 Z M 193.136719 192.71875 C 192.707031 192.71875 192.359375 193.066406 192.359375 193.492188 L 192.359375 195.042969 C 192.359375 195.46875 192.707031 195.820312 193.136719 195.820312 C 193.5625 195.820312 193.910156 195.46875 193.910156 195.042969 L 193.910156 193.492188 C 193.910156 193.066406 193.5625 192.71875 193.136719 192.71875 Z M 197.007812 192.71875 C 196.578125 192.71875 196.230469 193.066406 196.230469 193.492188 L 196.230469 195.042969 C 196.230469 195.46875 196.578125 195.820312 197.007812 195.820312 C 197.4375 195.820312 197.78125 195.46875 197.78125 195.042969 L 197.78125 193.492188 C 197.78125 193.066406 197.4375 192.71875 197.007812 192.71875 Z M 200.878906 192.71875 C 200.449219 192.71875 200.101562 193.066406 200.101562 193.492188 L 200.101562 195.042969 C 200.101562 195.46875 200.449219 195.820312 200.878906 195.820312 C 201.308594 195.820312 201.652344 195.46875 201.652344 195.042969 L 201.652344 193.492188 C 201.652344 193.066406 201.308594 192.71875 200.878906 192.71875 Z M 204.75 192.71875 C 204.320312 192.71875 203.976562 193.066406 203.976562 193.492188 L 203.976562 195.042969 C 203.976562 195.46875 204.320312 195.820312 204.75 195.820312 C 205.179688 195.820312 205.523438 195.46875 205.523438 195.042969 L 205.523438 193.492188 C 205.523438 193.066406 205.179688 192.71875 204.75 192.71875 Z M 208.621094 192.71875 C 208.191406 192.71875 207.84375 193.066406 207.84375 193.492188 L 207.84375 195.042969 C 207.84375 195.46875 208.191406 195.820312 208.621094 195.820312 C 209.050781 195.820312 209.394531 195.46875 209.394531 195.042969 L 209.394531 193.492188 C 209.394531 193.066406 209.050781 192.71875 208.621094 192.71875 Z M 212.492188 192.71875 C 212.0625 192.71875 211.71875 193.066406 211.71875 193.492188 L 211.71875 195.042969 C 211.71875 195.46875 212.0625 195.820312 212.492188 195.820312 C 212.921875 195.820312 213.265625 195.46875 213.265625 195.042969 L 213.265625 193.492188 C 213.265625 193.066406 212.921875 192.71875 212.492188 192.71875 Z M 216.363281 192.71875 C 215.933594 192.71875 215.589844 193.066406 215.589844 193.492188 L 215.589844 195.042969 C 215.589844 195.46875 215.933594 195.820312 216.363281 195.820312 C 216.792969 195.820312 217.136719 195.46875 217.136719 195.042969 L 217.136719 193.492188 C 217.136719 193.066406 216.792969 192.71875 216.363281 192.71875 Z M 213.265625 197.367188 C 212.835938 197.367188 212.492188 197.714844 212.492188 198.144531 C 212.492188 198.570312 212.835938 198.917969 213.265625 198.917969 L 216.363281 198.917969 C 216.792969 198.917969 217.136719 198.570312 217.136719 198.144531 C 217.136719 197.714844 216.792969 197.367188 216.363281 197.367188 Z M 200.757812 202.027344 C 200.460938 202.074219 200.203125 202.292969 200.128906 202.605469 L 195.480469 221.207031 C 195.375 221.621094 195.628906 222.042969 196.042969 222.144531 C 196.105469 222.164062 196.171875 222.171875 196.230469 222.171875 C 196.578125 222.171875 196.894531 221.9375 196.980469 221.585938 L 201.628906 202.984375 C 201.734375 202.566406 201.480469 202.144531 201.066406 202.042969 C 200.960938 202.015625 200.855469 202.011719 200.757812 202.027344 Z M 191.585938 206.667969 C 191.390625 206.667969 191.191406 206.746094 191.039062 206.894531 L 186.394531 211.546875 C 186.089844 211.847656 186.089844 212.339844 186.394531 212.640625 L 191.039062 217.292969 C 191.191406 217.445312 191.386719 217.519531 191.585938 217.519531 C 191.785156 217.519531 191.984375 217.445312 192.132812 217.292969 C 192.4375 216.988281 192.4375 216.5 192.132812 216.195312 L 188.035156 212.09375 L 192.132812 207.992188 C 192.4375 207.6875 192.4375 207.199219 192.132812 206.894531 C 191.984375 206.746094 191.78125 206.667969 191.585938 206.667969 Z M 205.523438 206.667969 C 205.328125 206.667969 205.125 206.746094 204.976562 206.894531 C 204.671875 207.199219 204.671875 207.6875 204.976562 207.992188 L 209.074219 212.09375 L 204.976562 216.195312 C 204.671875 216.5 204.671875 216.988281 204.976562 217.292969 C 205.125 217.445312 205.324219 217.519531 205.523438 217.519531 C 205.722656 217.519531 205.921875 217.445312 206.070312 217.292969 L 210.714844 212.640625 C 211.019531 212.339844 211.019531 211.847656 210.714844 211.546875 L 206.070312 206.894531 C 205.921875 206.746094 205.71875 206.667969 205.523438 206.667969 Z M 205.523438 206.667969 " fill-opacity="1" fill-rule="nonzero"/></g></svg>