<svg xmlns="http://www.w3.org/2000/svg" viewBox="0 0 262.69 34.78"><defs><style>.cls-1{fill:#455c74;}.cls-2{fill:#dcddd8;}.cls-3{fill:#24b78d;}.cls-4{fill:#000;}</style></defs><g id="Layer_2" data-name="Layer 2"><g id="Layer_1-2" data-name="Layer 1"><g id="Layer_2-2" data-name="Layer 2"><g id="Layer_1-2-2" data-name="Layer 1-2"><rect class="cls-1" x="26.05" y="8.17" width="2.72" height="2.72"></rect><rect class="cls-2" x="31.41" y="10.98" width="2.72" height="2.72"></rect><rect class="cls-3" x="28.78" y="2.72" width="2.72" height="2.72"></rect><rect class="cls-1" x="34.22" width="2.72" height="2.72"></rect><rect class="cls-3" x="20.61" y="10.89" width="2.72" height="2.72"></rect><rect class="cls-2" x="17.88" y="5.45" width="2.72" height="2.72"></rect><path class="cls-4" d="M23.33,19.06V16.34H20.61V13.61H17.88V10.89H15.16V8.17H0v26H12.28a11,11,0,0,0,11-11V21.78m-5.81-.42a7,7,0,0,1-7,7H5.81V14h4.68a7,7,0,0,1,7,7Z"></path><polygon class="cls-4" points="33.7 23.86 29.5 16.29 24.5 16.29 31.25 28.77 31.25 34.57 36.17 34.57 36.17 28.64 42.79 16.29 37.79 16.29 33.7 23.86"></polygon><polygon class="cls-4" points="56.57 26.92 48.63 16.29 44.32 16.29 44.32 34.57 48.98 34.57 48.98 23.96 56.9 34.57 61.21 34.57 61.21 16.29 56.57 16.29 56.57 26.92"></polygon><path class="cls-4" d="M70.25,16.29,62.37,34.57h5.11l1.3-3.3h7.54l1.28,3.3h5.29l-7.7-18.28Zm4.59,11.13H70.27l2.31-5.86Z"></path><polygon class="cls-4" points="94.48 26.63 89.76 16.27 84.45 16.27 84.45 34.57 88.91 34.57 88.91 23.71 92.87 32.78 96.09 32.78 100.05 23.7 100.08 34.57 104.49 34.57 104.49 16.27 99.2 16.27 94.48 26.63"></polygon><rect class="cls-4" x="107.68" y="16.29" width="4.95" height="18.28"></rect><path class="cls-4" d="M129,28.35a6.44,6.44,0,0,1-4.35,2,4.83,4.83,0,0,1-4.79-4.85c0-.07,0-.14,0-.21a4.77,4.77,0,0,1,4.55-5h.23a5.92,5.92,0,0,1,4.35,2.3l.15.19,2.9-3.44-.13-.13a10.58,10.58,0,0,0-7.34-3.07c-5.56,0-9.75,4-9.75,9.24A9.28,9.28,0,0,0,124,34.77h.42A11,11,0,0,0,132,31.44l.13-.14-2.93-3.1Z"></path><polygon class="cls-4" points="144.34 27.39 152.87 27.39 152.87 23.41 144.34 23.41 144.34 20.27 153.79 20.27 153.79 16.29 139.4 16.29 139.4 34.57 154.07 34.57 154.07 30.59 144.34 30.59 144.34 27.39"></polygon><polygon class="cls-4" points="161.55 16.29 156.61 16.29 156.61 34.57 169.14 34.57 169.14 30.36 161.55 30.36 161.55 16.29"></polygon><polygon class="cls-4" points="175.85 27.39 184.38 27.39 184.38 23.41 175.85 23.41 175.85 20.27 185.3 20.27 185.3 16.29 170.9 16.29 170.9 34.57 185.58 34.57 185.58 30.59 175.85 30.59 175.85 27.39"></polygon><polygon class="cls-4" points="198.15 26.63 193.42 16.27 188.11 16.27 188.11 34.57 192.58 34.57 192.58 23.71 196.53 32.78 199.76 32.78 203.72 23.7 203.74 34.57 208.15 34.57 208.15 16.27 202.87 16.27 198.15 26.63"></polygon><polygon class="cls-4" points="216.3 27.39 224.82 27.39 224.82 23.41 216.3 23.41 216.3 20.27 225.75 20.27 225.75 16.29 211.35 16.29 211.35 34.57 226.03 34.57 226.03 30.59 216.3 30.59 216.3 27.39"></polygon><polygon class="cls-4" points="240.82 26.92 232.87 16.29 228.56 16.29 228.56 34.57 233.22 34.57 233.22 23.96 241.15 34.57 245.46 34.57 245.46 16.29 240.82 16.29 240.82 26.92"></polygon><polygon class="cls-4" points="247.02 16.27 247.02 20.34 252.36 20.34 252.36 34.57 257.3 34.57 257.3 20.34 262.69 20.34 262.69 16.27 247.02 16.27"></polygon></g></g></g></g></svg>