<?xml version="1.0" encoding="UTF-8"?>
<svg width="112px" height="36px" viewBox="0 0 112 36" version="1.1" xmlns="http://www.w3.org/2000/svg" xmlns:xlink="http://www.w3.org/1999/xlink">
    <!-- Generator: Sketch 48.1 (47250) - http://www.bohemiancoding.com/sketch -->
    <title>Logo</title>
    <desc>Created with Sketch.</desc>
    <defs>
        <polygon id="path-1" points="0.0379661017 35.9987368 0.0379661017 0.0404210526 17.9551186 0.0404210526 35.8722712 0.0404210526 35.8722712 35.9987368"></polygon>
    </defs>
    <g id="Desktop-scrolled-HD" stroke="none" stroke-width="1" fill="none" fill-rule="evenodd" transform="translate(-94.000000, -13.000000)">
        <g id="Navi-Main" transform="translate(0.000000, -2.000000)">
            <g id="Logo" transform="translate(94.000000, 15.000000)">
                <g id="Logo_Schule-Kemmental_breit">
                    <g id="Group-7">
                        <mask id="mask-2" fill="white">
                            <use xlink:href="#path-1"></use>
                        </mask>
                        <g id="Clip-2"></g>
                        <path d="M5.20515254,10.4254737 C2.32922034,10.4254737 0,8.10063158 0,5.23578947 C0,2.36526316 2.32922034,0.0404210526 5.20515254,0.0404210526 C8.07538983,0.0404210526 10.4103051,2.36526316 10.4103051,5.23578947 C10.4103051,8.10063158 8.07538983,10.4254737 5.20515254,10.4254737" id="Fill-1" fill="#FFF101" mask="url(#mask-2)"></path>
                        <path d="M30.6728136,10.4254737 C27.7968814,10.4254737 25.467661,8.10063158 25.467661,5.23578947 C25.467661,2.36526316 27.7968814,0.0404210526 30.6728136,0.0404210526 C33.5430508,0.0404210526 35.8722712,2.36526316 35.8722712,5.23578947 C35.8722712,8.10063158 33.5430508,10.4254737 30.6728136,10.4254737" id="Fill-3" fill="#00A3DA" mask="url(#mask-2)"></path>
                        <path d="M5.20515254,35.9987368 C2.32922034,35.9987368 0,33.6738947 0,30.8033684 C0,27.9391579 2.32922034,25.6136842 5.20515254,25.6136842 C8.07538983,25.6136842 10.4103051,27.9391579 10.4103051,30.8033684 C10.4103051,33.6738947 8.07538983,35.9987368 5.20515254,35.9987368" id="Fill-4" fill="#00A3DA" mask="url(#mask-2)"></path>
                        <path d="M30.6728136,35.9987368 C27.7968814,35.9987368 25.467661,33.6738947 25.467661,30.8033684 C25.467661,27.9391579 27.7968814,25.6136842 30.6728136,25.6136842 C33.5430508,25.6136842 35.8722712,27.9391579 35.8722712,30.8033684 C35.8722712,33.6738947 33.5430508,35.9987368 30.6728136,35.9987368" id="Fill-5" fill="#00A3DA" mask="url(#mask-2)"></path>
                        <path d="M5.20515254,23.2149474 C2.32922034,23.2149474 0,20.8901053 0,18.0195789 C0,15.1547368 2.32352542,12.8355789 5.1880678,12.8242105 C10.3932203,12.8071579 12.7452203,10.4425263 12.7338305,5.24778947 L12.7338305,5.23578947 C12.7338305,2.36526316 15.0630508,0.0404210526 17.9389831,0.0404210526 C20.8092203,0.0404210526 23.1384407,2.36526316 23.1384407,5.23578947 C23.1384407,8.10063158 20.8206102,10.4197895 17.9503729,10.4254737 C12.7452203,10.4425263 10.3932203,12.8071579 10.4103051,18.0025263 L10.4046102,18.0025263 L10.4103051,18.0195789 C10.4103051,20.8901053 8.07538983,23.2149474 5.20515254,23.2149474" id="Fill-6" fill="#009949" mask="url(#mask-2)"></path>
                    </g>
                    <path d="M17.9389831,35.9987368 C15.0630508,35.9987368 12.7338305,33.6738947 12.7338305,30.8033684 C12.7338305,29.3709474 13.3147119,28.0749474 14.2600678,27.1313684 C16.1849492,25.2107368 16.1849492,23.6185263 14.2600678,21.6915789 C13.3147119,20.7536842 12.7338305,19.452 12.7338305,18.0195789 C12.7338305,15.1490526 15.0630508,12.8242105 17.9389831,12.8242105 C19.3741017,12.8242105 20.6725424,13.4096842 21.6178983,14.3475789 C22.5657853,15.2943158 23.4345763,15.7673684 24.3027345,15.7673684 C25.1715254,15.7673684 26.0396836,15.2943158 26.9882034,14.3475789 C27.9335593,13.4096842 29.232,12.8242105 30.6728136,12.8242105 C33.5430508,12.8242105 35.8722712,15.1490526 35.8722712,18.0195789 C35.8722712,20.8901053 33.5430508,23.2149474 30.6728136,23.2149474 C29.232,23.2149474 27.9335593,22.6357895 26.9882034,21.6915789 C26.0396836,20.7454737 25.1715254,20.2724211 24.3027345,20.2724211 C23.4345763,20.2724211 22.5657853,20.7454737 21.6178983,21.6915789 C19.687322,23.6185263 19.687322,25.2107368 21.6178983,27.1313684 C22.5575593,28.0749474 23.1384407,29.3709474 23.1384407,30.8033684 C23.1384407,33.6738947 20.8092203,35.9987368 17.9389831,35.9987368" id="Fill-8" fill="#00A3DA"></path>
                    <path d="M46.8697853,23.388 C46.1819661,23.388 45.4656723,23.2585263 44.9050395,23.0343158 C44.3545311,22.8069474 43.9103277,22.4886316 43.8964068,22.0042105 C43.8970395,21.6202105 44.1178757,21.2002105 44.5892881,21.1983158 C44.903774,21.2122105 45.144226,21.4250526 45.4979435,21.6082105 C45.8478644,21.7957895 46.2813107,21.9745263 46.8837062,21.9757895 C48.083435,21.9707368 48.7744181,21.1345263 48.7826441,20.0955789 C48.7775819,19.56 48.5333333,19.2543158 48.1144407,18.9877895 C47.6949153,18.7250526 47.1039096,18.5425263 46.5015141,18.3328421 C45.3093785,17.9223158 43.9906893,17.3254737 43.9951186,15.5709474 C43.9963842,14.2983158 45.1777627,12.8178947 47.1387119,12.8147368 C47.7866667,12.8153684 48.4238644,12.9498947 48.9161582,13.1728421 C49.3995932,13.3976842 49.7767232,13.7147368 49.7868475,14.1587368 C49.7862147,14.5395789 49.4894463,14.8781053 49.0794124,14.8793684 C48.7263277,14.8743158 48.5137175,14.6766316 48.2606102,14.5288421 C48.0037062,14.376 47.6911186,14.2301053 47.0963164,14.2275789 C46.2446102,14.2364211 45.668791,14.7385263 45.6649944,15.4869474 C45.6700565,15.9745263 45.9079774,16.2555789 46.3300339,16.5126316 C46.7514576,16.7627368 47.3437288,16.944 47.9473898,17.1637895 C49.1445876,17.5907368 50.4575819,18.2406316 50.4531525,20.0393684 C50.4531525,20.9134737 50.1329718,21.7522105 49.520452,22.3730526 C48.9098305,22.9932632 48.0094011,23.388 46.876113,23.388 L46.8697853,23.388" id="Fill-9" fill="#1A1919"></path>
                    <path d="M51.7832316,22.1494737 C51.1909605,21.3997895 50.9087458,20.4018947 50.9087458,19.3743158 C50.9087458,18.348 51.1909605,17.3501053 51.7832316,16.5997895 C52.3742373,15.8501053 53.2828927,15.3574737 54.4762938,15.3587368 C55.7722034,15.3675789 56.6352994,15.7793684 56.6713672,16.4766316 C56.6694689,16.8183158 56.3992768,17.1625263 55.9924068,17.1688421 C55.3874802,17.1429474 55.2634576,16.764 54.4762938,16.7728421 C53.7618983,16.7753684 53.2885876,17.1069474 52.9633446,17.6027368 C52.6412655,18.0997895 52.4919322,18.7648421 52.492565,19.3743158 C52.4919322,19.9850526 52.6412655,20.6482105 52.9633446,21.1452632 C53.2885876,21.6416842 53.7618983,21.9738947 54.4762938,21.9757895 C55.2988927,21.9827368 55.4393672,21.5861053 55.9778531,21.5526316 C56.155661,21.5513684 56.3265085,21.612 56.4473672,21.7389474 C56.568226,21.8633684 56.6296045,22.0421053 56.628339,22.2448421 C56.5985989,22.8884211 55.7962486,23.3810526 54.4762938,23.3892632 L54.4687006,23.3892632 C53.279096,23.3892632 52.3729718,22.8985263 51.7832316,22.1494737" id="Fill-10" fill="#1A1919"></path>
                    <path d="M63.0458757,23.388 C62.8180791,23.3905263 62.6105311,23.3090526 62.4681582,23.1574737 C62.3251525,23.0046316 62.2536497,22.7924211 62.2536497,22.5555789 L62.2536497,18.4566316 C62.2460565,17.2326316 61.4342147,16.7848421 60.6812203,16.7728421 C59.9275932,16.7848421 59.1157514,17.2326316 59.1081582,18.4566316 L59.1081582,22.5555789 C59.108791,22.7924211 59.0379209,23.0046316 58.8942825,23.1574737 C58.7519096,23.3090526 58.543096,23.3905263 58.3159322,23.388 C58.0875028,23.3905263 57.8799548,23.3090526 57.7369492,23.1574737 C57.5939435,23.0046316 57.5230734,22.7924211 57.5230734,22.5555789 L57.5230734,12.8854737 C57.5230734,12.648 57.5939435,12.4351579 57.7369492,12.2835789 C57.8799548,12.1307368 58.0875028,12.0505263 58.3159322,12.0517895 C58.543096,12.0505263 58.7519096,12.1307368 58.8942825,12.2835789 C59.0379209,12.4351579 59.108791,12.648 59.1081582,12.8854737 L59.1081582,16.1115789 C59.6656271,15.5797895 60.3736949,15.3587368 61.0488588,15.36 C61.6639096,15.36 62.359322,15.5538947 62.9072994,16.0351579 C63.4546441,16.5157895 63.8406328,17.2856842 63.8393672,18.3846316 L63.8393672,22.5555789 C63.8393672,22.7924211 63.7678644,23.0046316 63.6248588,23.1574737 C63.4831186,23.3077895 63.2781017,23.388 63.0515706,23.388 L63.0458757,23.388" id="Fill-11" fill="#1A1919"></path>
                    <path d="M70.6675706,15.36 C70.896,15.3587368 71.103548,15.4389474 71.2459209,15.5917895 C71.3889266,15.7452632 71.4604294,15.9562105 71.4597966,16.1943158 L71.4597966,20.2225263 C71.4623277,21.3625263 71.0738079,22.1709474 70.4745763,22.6768421 C69.8766102,23.1846316 69.0888136,23.388 68.3016497,23.3892632 C67.5157514,23.388 66.727322,23.1846316 66.1299887,22.6768421 C65.5307571,22.1709474 65.1422373,21.3625263 65.1441356,20.2225263 L65.1441356,16.1943158 C65.1435028,15.9562105 65.2150056,15.7452632 65.3586441,15.5917895 C65.5016497,15.4389474 65.7091977,15.3587368 65.9363616,15.36 C66.1641582,15.3587368 66.3729718,15.4389474 66.5159774,15.5917895 C66.6589831,15.7452632 66.7298531,15.9562105 66.7298531,16.1943158 L66.7298531,20.1808421 C66.7545311,21.4212632 67.2050621,21.9549474 68.3016497,21.9764211 C69.3988701,21.9549474 69.8494011,21.4212632 69.8753446,20.1808421 L69.8753446,16.1943158 C69.8747119,15.9562105 69.9455819,15.7452632 70.0892203,15.5917895 C70.2309605,15.4389474 70.439774,15.3587368 70.6675706,15.36" id="Fill-14" fill="#1A1919"></path>
                    <path d="M73.5580565,23.388 C73.3302599,23.3905263 73.1220791,23.3090526 72.9797062,23.1574737 C72.8360678,23.0046316 72.764565,22.7924211 72.7658305,22.5555789 L72.7658305,12.8854737 C72.764565,12.648 72.8360678,12.4351579 72.9797062,12.2835789 C73.1220791,12.1307368 73.3302599,12.0505263 73.5580565,12.0517895 C73.7858531,12.0505263 73.9946667,12.1307368 74.1364068,12.2835789 C74.2800452,12.4351579 74.3509153,12.648 74.3502825,12.8854737 L74.3502825,22.5555789 C74.3509153,22.7924211 74.2800452,23.0046316 74.1364068,23.1574737 C73.9946667,23.3077895 73.7890169,23.388 73.5637514,23.388 L73.5580565,23.388" id="Fill-15" fill="#1A1919"></path>
                    <path d="M78.7448588,16.7728421 L78.6550056,16.7703158 C77.3793446,16.7728421 76.8940113,17.7296842 76.799096,18.7522105 L80.5773559,18.7522105 C80.511548,17.7776842 79.9363616,16.7741053 78.7562486,16.7728421 L78.7448588,16.7728421 Z M78.8271186,23.388 L78.8163616,23.388 C77.5748701,23.388 76.6535593,22.8991579 76.0631864,22.1494737 C75.4702825,21.3985263 75.2019887,20.4006316 75.2019887,19.3743158 C75.2057853,17.2762105 76.5339661,15.36 78.7562486,15.36 C80.9279096,15.3637895 82.1656045,17.3166316 82.1687684,19.1917895 C82.1687684,19.4267368 82.1295367,19.6427368 81.9776723,19.8031579 C81.8232768,19.9635789 81.5948475,20.0248421 81.3063051,20.0248421 L76.7934011,20.0248421 C76.8680678,21.1534737 77.5919548,21.9682105 78.8423051,21.9764211 C79.6351638,21.9745263 80.1110056,21.7389474 80.4659887,21.4970526 C80.8272994,21.2627368 81.0272542,20.9804211 81.391096,20.9583158 C81.7201356,20.9589474 82.0118418,21.2513684 82.0131073,21.6783158 C81.9909605,22.1223158 81.5549831,22.4962105 80.9690395,22.8252632 C80.3748701,23.1473684 79.5997288,23.388 78.8271186,23.388 Z" id="Fill-16" fill="#1A1919"></path>
                    <path d="M50.4189831,35.3261053 L46.0054237,30.9991579 L46.0054237,34.8088421 C46.0060565,35.0463158 45.9345537,35.2591579 45.7909153,35.4101053 C45.6485424,35.5635789 45.4409944,35.6444211 45.2131977,35.6437895 C44.9847684,35.6444211 44.7765876,35.5635789 44.6342147,35.4101053 C44.491209,35.2591579 44.4190734,35.0463158 44.420339,34.8088421 L44.420339,25.9029474 C44.4190734,25.6661053 44.491209,25.4532632 44.6342147,25.3016842 C44.7765876,25.1494737 44.9847684,25.068 45.2131977,25.0692632 C45.4409944,25.068 45.6485424,25.1494737 45.7909153,25.3016842 C45.9345537,25.4532632 46.0060565,25.6661053 46.0054237,25.9029474 L46.0054237,29.196 L50.0399548,25.5113684 C50.2645876,25.3042105 50.4885876,25.0755789 50.8359774,25.0692632 C51.0296045,25.0692632 51.2105763,25.1374737 51.3402938,25.2644211 C51.4706441,25.3913684 51.5434124,25.5738947 51.5427797,25.7753684 C51.5535367,26.1404211 51.3801582,26.3450526 51.2320904,26.4669474 L47.2317288,30.0631579 L51.6161808,34.2890526 C51.8357514,34.4842105 51.9312994,34.7008421 51.9249718,34.9218947 C51.9224407,35.3261053 51.5699887,35.6437895 51.1472994,35.6437895 L51.1175593,35.6437895 C50.9201356,35.6437895 50.6790508,35.5793684 50.4189831,35.3261053" id="Fill-17" fill="#1A1919"></path>
                    <path d="M57.4730847,31.0067368 C57.4079096,30.0328421 56.8314576,29.0292632 55.6412203,29.0267368 L55.5507345,29.0242105 C54.2750734,29.0267368 53.7897401,29.9842105 53.6954576,31.0067368 L57.4730847,31.0067368 Z M55.6526102,27.6138947 C57.8242712,27.6183158 59.0613333,29.5705263 59.0651299,31.4456842 C59.0651299,31.6806316 59.0252655,31.8966316 58.8734011,32.0583158 C58.7190056,32.2187368 58.4905763,32.2781053 58.2014011,32.2781053 L53.6891299,32.2781053 C53.7637966,33.4073684 54.4870508,34.2233684 55.7367684,34.2296842 C56.5315254,34.2277895 57.0073672,33.9915789 57.3617175,33.7509474 C57.7230282,33.5178947 57.9242486,33.2330526 58.2868249,33.2122105 C58.6158644,33.2134737 58.9088362,33.5058947 58.9094689,33.9334737 C58.887322,34.3774737 58.4507119,34.7501053 57.8647684,35.0791579 C57.2718644,35.4012632 56.4954576,35.6412632 55.7228475,35.6425263 L55.7120904,35.6425263 C54.4705989,35.6425263 53.5486554,35.1530526 52.959548,34.404 C52.3660113,33.6524211 52.0983503,32.6545263 52.0977175,31.6282105 C52.1008814,29.5294737 53.4303277,27.6151579 55.6526102,27.6138947 Z" id="Fill-18" fill="#1A1919"></path>
                    <path d="M67.6359774,27.6145263 C68.2510282,27.6145263 68.9451751,27.8077895 69.4931525,28.2890526 C70.0417627,28.7703158 70.4271186,29.5402105 70.4252203,30.6391579 L70.4252203,34.8088421 C70.4252203,35.0463158 70.3549831,35.2585263 70.2113446,35.4113684 C70.0696045,35.5623158 69.8639548,35.6425263 69.6386893,35.6425263 L69.6329944,35.6425263 C69.4051977,35.6444211 69.1970169,35.5635789 69.0546441,35.4113684 C68.9110056,35.2585263 68.8395028,35.0463158 68.8407684,34.8088421 L68.8407684,30.5962105 C68.8230508,29.5844211 68.3313898,29.0418947 67.3948927,29.0267368 C66.4742147,29.0418947 65.9800226,29.5844211 65.9635706,30.5962105 L65.9635706,34.8088421 C65.9648362,35.0463158 65.8933333,35.2585263 65.7496949,35.4113684 C65.607322,35.5635789 65.3991412,35.6444211 65.1713446,35.6425263 C64.9429153,35.6444211 64.7353672,35.5635789 64.5929944,35.4113684 C64.4499887,35.2585263 64.3778531,35.0463158 64.3778531,34.8088421 L64.3778531,30.5962105 C64.3620339,29.5844211 63.8703729,29.0418947 62.9332429,29.0267368 C62.012565,29.0418947 61.5196384,29.5844211 61.5019209,30.5962105 L61.5019209,34.8088421 C61.5019209,35.0463158 61.4310508,35.2585263 61.2880452,35.4113684 C61.1456723,35.5635789 60.9381243,35.6444211 60.7096949,35.6425263 C60.4825311,35.6444211 60.2737175,35.5635789 60.1307119,35.4113684 C59.988339,35.2585263 59.9162034,35.0463158 59.9174689,34.8088421 L59.9174689,28.4482105 C59.9162034,28.2101053 59.988339,27.9978947 60.1307119,27.8456842 C60.2737175,27.6934737 60.4825311,27.6132632 60.7096949,27.6145263 C60.9381243,27.6132632 61.1456723,27.6934737 61.2880452,27.8456842 C61.3981469,27.9631579 61.4664859,28.1172632 61.4911638,28.2896842 C61.8246328,27.9524211 62.3561582,27.6082105 63.2597514,27.6145263 C63.9842712,27.6094737 64.7587797,27.9107368 65.3371299,28.7551579 C65.880678,28.0534737 66.5893785,27.6094737 67.6359774,27.6145263" id="Fill-19" fill="#1A1919"></path>
                    <path d="M79.4503955,27.6145263 C80.0654463,27.6145263 80.7595932,27.8077895 81.3075706,28.2890526 C81.8561808,28.7703158 82.2421695,29.5402105 82.2396384,30.6391579 L82.2396384,34.8088421 C82.2402712,35.0463158 82.1687684,35.2585263 82.0257627,35.4113684 C81.8840226,35.5623158 81.6783729,35.6425263 81.4537401,35.6425263 L81.4474124,35.6425263 C81.2183503,35.6444211 81.0108023,35.5635789 80.8690621,35.4113684 C80.7254237,35.2585263 80.6539209,35.0463158 80.6545537,34.8088421 L80.6545537,30.5962105 C80.6381017,29.5844211 80.1458079,29.0418947 79.2093107,29.0267368 C78.2892655,29.0418947 77.7957062,29.5844211 77.7786215,30.5962105 L77.7786215,34.8088421 C77.7786215,35.0463158 77.7071186,35.2585263 77.564113,35.4113684 C77.4217401,35.5635789 77.2135593,35.6444211 76.9857627,35.6425263 C76.7585989,35.6444211 76.5504181,35.5635789 76.4067797,35.4113684 C76.263774,35.2585263 76.192904,35.0463158 76.192904,34.8088421 L76.192904,30.5962105 C76.1758192,29.5844211 75.6835254,29.0418947 74.7482938,29.0267368 C73.8276158,29.0418947 73.3334237,29.5844211 73.316339,30.5962105 L73.316339,34.8088421 C73.3169718,35.0463158 73.2467345,35.2585263 73.103096,35.4113684 C72.9600904,35.5635789 72.7525424,35.6444211 72.524113,35.6425263 C72.2963164,35.6444211 72.0887684,35.5635789 71.9451299,35.4113684 C71.8027571,35.2585263 71.7312542,35.0463158 71.7312542,34.8088421 L71.7312542,28.4482105 C71.7312542,28.2101053 71.8027571,27.9978947 71.9451299,27.8456842 C72.0887684,27.6934737 72.2963164,27.6132632 72.524113,27.6145263 C72.7525424,27.6132632 72.9600904,27.6934737 73.103096,27.8456842 C73.2131977,27.9631579 73.2815367,28.1172632 73.3062147,28.2903158 C73.6396836,27.9524211 74.1705763,27.6082105 75.0735367,27.6145263 C75.7999548,27.6094737 76.5738305,27.9107368 77.1521808,28.7551579 C77.6957288,28.0534737 78.4044294,27.6094737 79.4503955,27.6145263" id="Fill-20" fill="#1A1919"></path>
                    <path d="M88.4686102,31.0067368 C88.4015367,30.0328421 87.8269831,29.0292632 86.636113,29.0267368 L86.5449944,29.0242105 C85.2705989,29.0267368 84.784,29.9842105 84.6903503,31.0067368 L88.4686102,31.0067368 Z M86.6481356,27.6138947 C88.8178983,27.6183158 90.056226,29.5705263 90.0593898,31.4456842 C90.0593898,31.6806316 90.020791,31.8966316 89.867661,32.0583158 C89.7132655,32.2187368 89.4854689,32.2781053 89.1969266,32.2781053 L84.6846554,32.2781053 C84.7586893,33.4073684 85.4819435,34.2233684 86.7322938,34.2296842 C87.5257853,34.2277895 88.0028927,33.9915789 88.3572429,33.7509474 C88.7185537,33.5178947 88.9178757,33.2330526 89.2817175,33.2122105 C89.6101243,33.2134737 89.9043616,33.5058947 89.9043616,33.9334737 C89.8822147,34.3774737 89.4456045,34.7501053 88.8602938,35.0791579 C88.2654915,35.4012632 87.4903503,35.6412632 86.7183729,35.6425263 L86.7069831,35.6425263 C85.4654915,35.6425263 84.5441808,35.1530526 83.9544407,34.404 C83.360904,33.6524211 83.0932429,32.6545263 83.0932429,31.6282105 C83.0964068,29.5294737 84.4252203,27.6151579 86.6481356,27.6138947 Z" id="Fill-21" fill="#1A1919"></path>
                    <path d="M94.4381469,27.6145263 C95.0531977,27.6145263 95.7479774,27.8077895 96.295322,28.2890526 C96.844565,28.7703158 97.2292881,29.5402105 97.2273898,30.6391579 L97.2273898,34.8088421 C97.2280226,35.0463158 97.1565198,35.2585263 97.0135141,35.4113684 C96.8724068,35.5623158 96.6661243,35.6425263 96.4408588,35.6425263 L96.4357966,35.6425263 C96.2073672,35.6444211 95.9985537,35.5635789 95.8561808,35.4113684 C95.7138079,35.2585263 95.6416723,35.0463158 95.6416723,34.8088421 L95.6416723,30.7098947 C95.6340791,29.4865263 94.8235028,29.04 94.0698757,29.0267368 C93.3168814,29.04 92.5056723,29.4865263 92.4974463,30.7098947 L92.4974463,34.8088421 C92.4980791,35.0463158 92.4259435,35.2585263 92.2823051,35.4113684 C92.1399322,35.5635789 91.9323842,35.6444211 91.7052203,35.6425263 C91.4761582,35.6444211 91.2686102,35.5635789 91.1268701,35.4113684 C90.9832316,35.2585263 90.9117288,35.0463158 90.9117288,34.8088421 L90.9117288,28.4482105 C90.9117288,28.2101053 90.9832316,27.9978947 91.1268701,27.8456842 C91.2686102,27.6934737 91.4761582,27.6132632 91.7052203,27.6145263 C91.9323842,27.6132632 92.1399322,27.6934737 92.2823051,27.8456842 C92.4094915,27.9808421 92.4809944,28.1627368 92.4942825,28.368 C93.0530169,27.8336842 93.7617175,27.6132632 94.4381469,27.6145263" id="Fill-22" fill="#1A1919"></path>
                    <path d="M100.855684,27.6978947 C101.086644,27.6978947 101.286599,27.7547368 101.432768,27.8829474 C101.579571,28.0105263 101.649175,28.2025263 101.64791,28.4065263 C101.649175,28.6086316 101.579571,28.8 101.432768,28.9282105 C101.286599,29.0551579 101.086644,29.1107368 100.855684,29.1107368 L100.514621,29.1107368 L100.514621,34.8088421 C100.515254,35.0463158 100.443751,35.2585263 100.300746,35.4113684 C100.159638,35.5623158 99.9546215,35.6425263 99.7280904,35.6425263 L99.7223955,35.6425263 C99.4945989,35.6444211 99.2857853,35.5635789 99.1434124,35.4113684 C99.0004068,35.2585263 98.9295367,35.0463158 98.9295367,34.8088421 L98.9295367,29.1107368 L98.5891073,29.1107368 C98.3575141,29.1107368 98.1575593,29.0551579 98.0120226,28.9282105 C97.8639548,28.8 97.7943503,28.6086316 97.7968814,28.4065263 C97.7943503,28.2025263 97.8639548,28.0105263 98.0120226,27.8829474 C98.1575593,27.7547368 98.3575141,27.6978947 98.5891073,27.6978947 L98.9295367,27.6978947 L98.9295367,26.2427368 C98.9295367,26.0058947 99.0004068,25.7924211 99.1434124,25.6402105 C99.2857853,25.4873684 99.4945989,25.4084211 99.7223955,25.4090526 C99.9508249,25.4084211 100.158373,25.4873684 100.300746,25.6402105 C100.443751,25.7924211 100.515254,26.0058947 100.514621,26.2427368 L100.514621,27.6978947 L100.855684,27.6978947" id="Fill-23" fill="#1A1919"></path>
                    <g id="Group-27" transform="translate(101.875706, 24.000000)" fill="#1A1919">
                        <path d="M3.4979435,10.2309474 C4.20537853,10.2271579 4.65337853,9.89810526 4.96153672,9.40294737 C5.264,8.90778947 5.39751412,8.24147368 5.39688136,7.62884211 C5.39751412,7.01557895 5.264,6.34989474 4.96153672,5.85473684 C4.65337853,5.35894737 4.20537853,5.03052632 3.4979435,5.02673684 C2.79114124,5.03052632 2.34250847,5.35894737 2.03498305,5.85473684 C1.73188701,6.34989474 1.59900565,7.01557895 1.59900565,7.62884211 C1.59900565,8.24147368 1.73188701,8.90778947 2.03498305,9.40294737 C2.34250847,9.89810526 2.79114124,10.2271579 3.4979435,10.2309474 M6.16,3.61452632 C6.46879096,3.61515789 6.91046328,3.84884211 6.91046328,4.39136842 L6.91046328,10.8663158 C6.91046328,11.4075789 6.46879096,11.6425263 6.16,11.6437895 C5.83981921,11.6425263 5.4120678,11.4044211 5.41143503,10.8663158 L5.41143503,10.7873684 C4.88750282,11.3551579 4.22879096,11.6437895 3.5080678,11.6437895 L3.4979435,11.6437895 C1.25731073,11.6425263 0.0177175141,9.67894737 0.013920904,7.62884211 C0.0177175141,5.57810526 1.25731073,3.61515789 3.4979435,3.61452632 C4.28067797,3.61136842 4.88244068,3.90757895 5.41143503,4.40273684 L5.41143503,4.39136842 C5.4120678,3.85389474 5.83981921,3.61515789 6.16,3.61452632" id="Fill-24"></path>
                        <path d="M9.00872316,0.305684211 C9.23715254,0.305052632 9.44533333,0.385263158 9.58707345,0.538105263 C9.73071186,0.689684211 9.80221469,0.903157895 9.80094915,1.14 L9.80094915,10.8088421 C9.80221469,11.0463158 9.73071186,11.2585263 9.58707345,11.4113684 C9.44659887,11.5623158 9.24094915,11.6425263 9.01505085,11.6425263 L9.00872316,11.6425263 C8.78155932,11.6444211 8.57337853,11.5635789 8.43037288,11.4113684 C8.288,11.2585263 8.21649718,11.0463158 8.21649718,10.8088421 L8.21649718,1.14 C8.21649718,0.903157895 8.288,0.690947368 8.43037288,0.538105263 C8.57337853,0.385263158 8.78155932,0.305052632 9.00872316,0.305684211" id="Fill-26"></path>
                    </g>
                </g>
            </g>
        </g>
    </g>
</svg>